<?xml version="1.0" encoding="UTF-8" standalone="no"?>
<svg
   xmlns:dc="http://purl.org/dc/elements/1.1/"
   xmlns:cc="http://creativecommons.org/ns#"
   xmlns:rdf="http://www.w3.org/1999/02/22-rdf-syntax-ns#"
   xmlns:svg="http://www.w3.org/2000/svg"
   xmlns="http://www.w3.org/2000/svg"
   viewBox="0 0 1056 815.99992"
   height="8.5in"
   width="11in"
   id="svg5279"
   version="1.1">
  <metadata
     id="metadata5285">
    <rdf:RDF>
      <cc:Work
         rdf:about="">
        <dc:format>image/svg+xml</dc:format>
        <dc:type
           rdf:resource="http://purl.org/dc/dcmitype/StillImage" />
        <dc:title></dc:title>
      </cc:Work>
    </rdf:RDF>
  </metadata>
  <defs
     id="defs5283" />
  <path
     id="ship_08"
     d="m 869.14158,516.56323 c -4.88737,-1.03946 -9.09673,-2.10048 -9.35415,-2.35803 -0.25742,-0.25734 2.69473,-9.37981 6.56034,-20.27194 3.86559,-10.89191 7.38401,-21.00664 7.81868,-22.47673 0.67754,-2.29167 1.33353,-2.62638 4.59727,-2.34512 3.20996,0.27652 3.91127,-0.0625 4.47236,-2.15674 1.17724,-4.39582 0.79993,-5.16804 -2.52512,-5.16804 h -3.21991 v -8.04981 c 0,-7.33427 0.19074,-8.04981 2.1466,-8.04981 1.88983,0 2.14658,-0.71553 2.14658,-5.98185 0,-5.11718 -0.27151,-5.93035 -1.87826,-5.6256 -1.13286,0.21552 -2.01307,1.52397 -2.21788,3.29859 -0.31907,2.76409 -0.66038,2.94233 -5.63485,2.94233 -2.91237,0 -5.29522,0.48299 -5.29522,1.0733 0,0.64033 -4.11433,1.07331 -10.19635,1.07331 -6.08204,0 -10.19636,-0.43298 -10.19636,-1.07331 0,-0.59031 -1.20747,-1.0733 -2.68325,-1.0733 -2.66338,0 -2.68324,0.0711 -2.68324,9.65976 v 9.65977 h -8.04977 c -7.33423,0 -8.04976,0.19182 -8.04976,2.14662 0,1.90803 0.71553,2.1464 6.4398,2.1464 h 6.43981 v 7.45971 7.45948 l -6.17149,0.32199 -6.17147,0.32178 -0.33003,4.56155 c -0.18147,2.50891 -0.66452,4.56824 -1.0733,4.57665 -0.40881,0 -8.95402,0.96748 -18.98937,2.13152 -10.03537,1.16404 -19.14346,2.12334 -20.24018,2.13153 -1.8633,0.0216 -1.9432,-0.69549 -1.21851,-10.82036 0.73099,-10.21345 0.66062,-10.81368 -1.22586,-10.45569 -1.42875,0.27091 -2.0936,1.47676 -2.32369,4.21413 l -0.32229,3.83459 -10.94737,1.12784 c -6.02104,0.62028 -11.14867,0.94335 -11.39474,0.7179 -0.45098,-0.41336 3.02067,-52.17588 3.53377,-52.68904 0.15173,-0.15087 5.23884,-0.60109 11.3048,-0.99852 l 11.02899,-0.72287 -0.36713,3.09967 c -0.26492,2.2367 0.1347,3.1975 1.43575,3.45181 2.15582,0.42135 2.58474,-2.21643 3.80311,-23.38861 l 0.83382,-14.48965 4.29321,-0.53666 4.29321,-0.53665 0.29627,-16.36772 c 0.24566,-13.57109 0.56659,-16.36794 1.87827,-16.36794 1.04225,0 1.58201,-1.09852 1.58201,-3.2197 v -3.21993 h 18.24612 18.2461 v 3.21993 c 0,2.14639 0.53665,3.2197 1.60996,3.2197 1.26594,0 1.60996,1.49077 1.60996,6.9765 0,6.72606 0.0963,6.9765 2.68324,6.9765 2.50436,0 2.68325,-0.35777 2.68325,-5.36654 v -5.36654 h 10.19636 10.19635 v 5.36654 c 0,5.00877 0.17888,5.36654 2.68327,5.36654 h 2.68325 v -19.31954 c 0,-16.45716 0.23849,-19.31931 1.60994,-19.31931 1.12443,0 1.60996,-1.13301 1.60996,-3.75658 0,-2.57507 0.49204,-3.75658 1.56448,-3.75658 1.54326,0 4.93614,-9.60911 6.53718,-18.51433 0.60038,-3.33932 1.16488,-4.0249 3.31402,-4.0249 1.77548,0 2.91129,-0.84421 3.61053,-2.68327 0.97019,-2.5518 1.43852,-2.68327 9.55849,-2.68327 7.98858,0 8.56041,0.15302 8.8813,2.37097 0.21574,1.49143 1.32987,2.60224 3.00341,2.99449 2.42195,0.56769 2.84639,1.58216 4.73428,11.31369 1.14059,5.87948 2.47908,10.85097 2.97437,11.04774 0.49532,0.19613 0.90056,1.8117 0.90056,3.58868 0,2.32831 0.59972,3.38782 2.14662,3.79236 1.38914,0.36316 2.14659,1.46405 2.14659,3.11948 0,2.41107 0.37025,2.55805 6.43983,2.55805 h 6.43979 v -11.26972 c 0,-10.55397 0.13622,-11.26951 2.1466,-11.26951 1.66958,0 2.14659,-0.71554 2.14659,-3.21993 0,-1.78906 0.95406,-4.17404 2.14662,-5.36653 2.52385,-2.524 6.4398,-2.85031 6.4398,-0.53666 0,0.88537 0.48299,1.60996 1.07331,1.60996 0.59029,0 1.07329,1.49401 1.07329,3.32036 0,2.41775 0.58357,3.47295 2.14661,3.88158 1.97272,0.51597 2.14662,1.46405 2.14662,11.70594 0,10.42898 0.13771,11.14451 2.14654,11.14451 2.06429,0 2.14664,0.71554 2.14664,18.65767 0,17.75483 -0.10386,18.6846 -2.14664,19.21888 -2.69675,0.70519 -2.84125,4.60811 -0.22257,6.00966 1.58901,0.85045 2.17119,3.61369 3.34331,15.869 0.78058,8.16145 1.66719,17.40072 1.97025,20.53164 l 0.55092,5.69262 -6.30915,-0.32609 -6.30917,-0.32587 -0.29781,-15.29463 -0.29779,-15.29463 h -4.26374 -4.26373 v 15.56296 15.56274 h -6.43979 c -4.43109,0 -6.44287,-0.41833 -6.44961,-1.34142 -0.006,-0.73796 1.02985,-10.03542 2.30056,-20.66117 1.56655,-13.09951 2.77915,-19.59583 3.76636,-20.17775 0.80079,-0.47199 1.45598,-2.04165 1.45598,-3.48824 0,-2.49879 -0.32104,-2.62982 -6.43979,-2.62982 h -6.43983 v 3.21992 c 0,2.50416 0.47702,3.2197 2.1466,3.2197 1.99598,0 2.14661,0.71576 2.14661,10.19642 0,9.48089 -0.15065,10.19642 -2.14661,10.19642 -2.03211,0 -2.1466,0.71554 -2.1466,13.41635 v 13.41613 h -4.82984 -4.82985 v 5.90318 c 0,5.18766 0.26017,5.90319 2.14658,5.90319 1.95579,0 2.14662,0.71554 2.14662,8.04981 v 8.04981 h -3.2199 c -1.77095,0 -3.2199,0.17027 -3.2199,0.3763 0,0.20691 0.53967,1.92463 1.1993,3.81693 0.98576,2.82767 1.69113,3.38177 3.96139,3.11172 2.61706,-0.31142 2.97543,0.29118 6.82632,11.47772 2.23537,6.4935 5.77728,16.58431 7.87097,22.42393 2.09365,5.83961 3.57475,10.84946 3.29134,11.13286 -1.01671,1.01663 -19.40684,4.37945 -20.0452,3.66521 -1.10286,-1.23367 -8.40225,-40.56392 -8.45191,-45.54014 -0.0108,-1.16899 0.79188,-1.87828 2.12787,-1.87828 2.17016,0 2.68645,-1.63756 1.49513,-4.74196 -0.95091,-2.47809 -22.01793,-2.48757 -24.49443,-0.0216 -2.28381,2.2839 -2.12042,3.76757 0.49008,4.45013 1.39028,0.36359 1.98978,1.19981 1.65932,2.31451 -0.47841,1.61362 -1.67025,8.03579 -6.64817,35.8226 -1.03109,5.75556 -2.38988,10.4156 -3.01951,10.35548 -0.62965,-0.0603 -5.14354,-0.95973 -10.0309,-1.9992 z m 18.62615,-196.97388 c 1.8058,-9.58778 1.64051,-12.97668 -0.52081,-10.6766 -0.77623,0.82588 -5.46269,18.19256 -5.46269,20.24304 0,0.33816 0.91484,0.61467 2.03295,0.61467 1.71743,0 2.33057,-1.58022 3.95055,-10.18111 z m 27.28885,7.97804 c 0,-3.66778 -3.37403,-17.57854 -4.542,-18.7262 -1.10998,-1.09077 -0.24268,18.19256 0.90152,20.04391 1.08717,1.7591 3.64048,0.83493 3.64048,-1.31771 z"
     style="fill:#000000;stroke-width:1.07330096" />
  <path
     id="ship_10"
     d="m 369.10441,784.42554 c 0,-2.58023 0.26778,-4.13358 0.73768,-4.27958 0.40583,-0.12604 1.08827,-1.83048 1.51658,-3.78764 0.42843,-1.95714 1.53396,-5.23583 2.45675,-7.28595 0.92291,-2.05014 2.25997,-5.24274 2.97146,-7.09466 1.07797,-2.80598 1.54041,-3.36719 2.77469,-3.36719 1.16102,0 1.48119,-0.31644 1.48119,-1.46397 0,-1.17121 -0.31421,-1.46402 -1.57083,-1.46402 h -1.57083 v -7.27921 c 0,-7.10298 0.0348,-7.28374 1.41366,-7.46634 1.1357,-0.15031 1.45215,-0.61917 1.60882,-2.38311 l 0.19504,-2.19599 h -2.55123 -2.55134 v -9.95512 -9.95514 h -1.88506 -1.88492 l -0.0136,14.4935 -0.0136,14.49349 -4.38401,4.56089 -4.38402,4.56092 v -17.25739 -17.2574 l 3.79358,-3.07511 3.79356,-3.07511 -0.18064,-4.65937 -0.18063,-4.65938 -4.7125,-1.71055 c -2.59195,-0.9408 -6.97458,-2.59362 -9.73922,-3.67293 -8.00662,-3.12569 -7.51016,-3.35997 -7.7191,3.64335 -0.16362,5.48536 -0.28368,6.00235 -1.3938,6.00235 -1.12092,0 -1.22843,-0.52553 -1.39181,-6.8016 l -0.17703,-6.80161 -7.54008,-2.86492 c -4.14701,-1.5757 -9.37783,-3.51095 -11.62415,-4.30054 -2.24631,-0.78959 -7.90133,-2.91795 -12.56678,-4.72969 -12.17996,-4.72995 -11.31006,-4.74914 -11.31006,0.24948 0,3.77704 -0.11794,4.16744 -1.25661,4.16744 -1.14017,0 -1.25762,-0.39339 -1.26631,-4.24558 0,-2.33506 -0.22533,-4.56183 -0.48901,-4.94838 -0.46419,-0.68062 -4.32205,-2.28326 -13.79597,-5.73108 l -4.55546,-1.65785 v -17.44109 -17.4411 l 2.65538,-0.18007 2.65538,-0.18007 1.19555,-5.70956 c 0.77256,-3.68989 1.48169,-5.70955 2.00472,-5.70955 0.51087,0 1.38461,2.28809 2.37046,6.2082 0.85885,3.41451 1.80138,6.41938 2.09462,6.6775 0.72353,0.63695 24.34959,4.21954 28.80821,4.36838 0.34563,0.0116 1.34315,-2.56327 2.2169,-5.7218 0.87375,-3.15854 1.83092,-5.79372 2.12701,-5.85596 0.29622,-0.0622 1.39479,2.78553 2.44148,6.32839 1.04669,3.54284 2.15904,6.60018 2.47202,6.79405 0.3131,0.19387 4.01317,0.80797 8.22263,1.36466 4.20934,0.55669 12.56133,1.78153 18.55988,2.72188 5.99866,0.94034 11.15884,1.70971 11.46721,1.70971 0.30826,0 0.56066,-2.14497 0.56066,-4.7666 0,-3.39615 0.25388,-4.95354 0.88317,-5.41677 1.1943,-0.87912 3.54987,-14.84274 2.61616,-15.50864 -1.04544,-0.74559 -10.95127,-3.47475 -11.33016,-3.12159 -0.18573,0.17304 -0.33768,1.32476 -0.33768,2.5594 v 2.24478 h -2.82746 -2.82757 v -16.39668 c 0,-14.18443 0.12725,-16.39668 0.94253,-16.39668 0.78548,0 0.94252,-1.17119 0.94252,-7.02715 0,-5.85594 0.15717,-7.02714 0.94252,-7.02714 0.78548,0 0.94253,1.1712 0.94253,7.02714 0,5.85596 0.15704,7.02715 0.94252,7.02715 0.78002,0 0.94241,1.09906 0.94241,6.37797 v 6.37797 l 2.35631,0.87605 c 4.31883,1.60571 11.482,3.41081 12.10695,3.05091 0.3393,-0.19545 0.61502,-1.06447 0.61267,-1.93117 0,-0.8667 0.32948,-3.61809 0.73706,-6.11419 l 0.74128,-4.53836 h 10.56095 c 12.16369,0 10.63184,-0.96811 12.04563,7.61273 0.81117,4.92356 0.83873,4.97569 2.54588,4.80335 0.94935,-0.0958 4.04123,-0.89022 6.87105,-1.76531 l 5.14503,-1.59108 0.17765,-6.57944 c 0.14351,-5.31748 0.35444,-6.57943 1.09957,-6.57943 0.75916,0 0.92192,-1.2409 0.92192,-7.02715 0,-5.85594 0.15704,-7.02714 0.94252,-7.02714 0.78486,0 0.94253,1.16361 0.94253,6.95885 0,6.46635 0.0894,6.98052 1.25662,7.26512 1.21837,0.29694 1.25673,0.79876 1.25673,16.46497 v 16.15871 h -3.14166 -3.1418 v -2.24478 c 0,-1.23464 -0.14959,-2.38427 -0.33258,-2.55475 -0.28741,-0.26788 -10.91763,2.79186 -11.46201,3.29916 -0.35419,0.33014 2.42881,14.62213 2.96861,15.24527 0.28689,0.33121 0.62756,2.62672 0.7568,5.10115 0.12936,2.47442 0.41192,4.66366 0.62793,4.86498 0.21601,0.20131 4.59406,-0.30383 9.72916,-1.12252 5.13498,-0.81868 13.41559,-2.03252 18.40134,-2.6974 4.98588,-0.66489 10.3823,-1.47215 11.99224,-1.79395 l 2.92713,-0.58506 1.64346,-6.1899 c 0.90392,-3.40445 1.80337,-6.33891 1.99877,-6.52103 0.76326,-0.71132 1.49585,0.96465 2.50864,5.73956 0.58077,2.73766 1.24806,5.1577 1.48295,5.37788 0.53407,0.50072 7.61469,-0.32157 20.21959,-2.34809 l 9.73909,-1.56581 1.83912,-6.29515 c 1.01143,-3.46233 2.04011,-6.29515 2.28592,-6.29515 0.24581,0 1.07847,2.43753 1.85041,5.41676 0.77195,2.97921 1.79331,5.70933 2.26954,6.0669 1.19367,0.89618 1.28753,34.46646 0.0981,35.15142 -0.42223,0.24318 -4.73411,1.93323 -9.58217,3.75567 l -8.81445,3.31354 -0.1825,4.77002 c -0.16412,4.28894 -0.30665,4.77002 -1.41378,4.77002 -1.10553,0 -1.23117,-0.4186 -1.23117,-4.09917 0,-2.25455 -0.24631,-4.09917 -0.54724,-4.09917 -0.30093,0 -2.49226,0.76031 -4.86956,1.68959 -4.45601,1.74177 -14.96978,5.69468 -19.40257,7.2948 -9.7849,3.53217 -18.24082,6.96418 -18.65472,7.57151 -0.26965,0.39554 -0.4946,3.42024 -0.49982,6.72153 -0.0125,5.60897 -0.0919,6.00235 -1.2663,6.00235 -1.17294,0 -1.25674,-0.3904 -1.25674,-5.85595 0,-3.22078 -0.26034,-5.85596 -0.57853,-5.85596 -1.46084,0 -19.93641,7.24195 -20.67595,8.1045 -0.56612,0.66026 -0.76103,2.24228 -0.60747,4.93033 0.2169,3.79623 0.32738,4.03573 2.70294,5.85596 1.36239,1.04382 3.12826,2.42489 3.92442,3.06904 l 1.44743,1.1712 -0.17517,17.15934 -0.17518,17.15934 -4.08419,-4.25055 -4.08419,-4.25055 -0.31422,-14.66556 -0.31409,-14.6656 -1.728,-0.18529 -1.72788,-0.18529 v 9.99402 9.99402 h -2.86545 -2.86544 l 0.19504,2.19599 c 0.15668,1.76394 0.47312,2.2328 1.60871,2.38311 1.37902,0.18253 1.41378,0.36488 1.41378,7.42564 0,7.06069 -0.0348,7.24305 -1.41378,7.42557 -0.90852,0.12026 -1.48542,0.65801 -1.61455,1.50474 -0.17032,1.11775 0.0882,1.31759 1.70381,1.31759 1.70975,0 1.97729,0.25434 2.61739,2.4888 0.39218,1.36879 1.67598,4.43747 2.85289,6.81919 1.17705,2.38171 2.4765,6.0328 2.88792,8.1135 0.41142,2.08069 1.1177,3.91535 1.56972,4.07697 0.56673,0.20269 0.8216,1.54629 0.8216,4.3304 v 4.03652 h -21.04932 -21.04913 z"
     style="fill:#000000;stroke-width:0.6065895" />
  <path
     id="ship_11"
     d="m 654.32095,809.50941 c -0.20742,-0.97766 -0.72468,-4.23879 -1.14947,-7.24695 -1.47969,-10.47821 -4.16074,-26.80295 -4.46877,-27.21029 -0.17062,-0.22562 -1.20364,-0.41021 -2.29563,-0.41021 h -1.98534 v -6.28981 -6.28982 h -4.05046 -4.05045 v -13.94698 -13.94697 h 4.05045 4.05046 v -4.10206 -4.10205 h -4.02692 -4.02678 l -0.19249,-5.58952 -0.19233,-5.58952 -5.73816,-3.40039 c -3.15593,-1.87021 -5.96595,-3.41597 -6.24442,-3.435 -0.27846,-0.0191 -0.50625,2.54969 -0.50625,5.70827 v 5.74288 h -3.03796 c -3.0185,0 -3.03781,0.0122 -3.03781,1.90386 0,1.57466 0.2919,1.96322 1.68771,2.24707 1.68604,0.34283 1.6877,0.35003 1.6877,7.0826 0,6.57261 -0.0378,6.74374 -1.5189,6.9142 -0.95851,0.11024 -1.59615,0.61423 -1.72829,1.36588 -0.16352,0.93019 0.17801,1.22972 1.55888,1.36736 1.45027,0.14456 2.07479,0.76615 3.47407,3.45787 3.22908,6.21145 6.31517,13.44729 6.31517,14.80687 0,0.74921 0.4557,1.50387 1.01265,1.67702 0.7645,0.23771 1.01265,1.23827 1.01265,4.08489 v 3.77007 h -22.61522 -22.61505 v -3.78301 c 0,-2.08065 0.30757,-3.86605 0.68349,-3.96758 0.37577,-0.10156 0.96649,-1.5938 1.31255,-3.3162 0.34589,-1.7224 1.2982,-4.30567 2.11596,-5.74061 0.81776,-1.43495 2.31539,-4.45491 3.32819,-6.71104 1.59644,-3.55671 2.0769,-4.12506 3.61376,-4.27512 1.36926,-0.13369 1.77247,-0.47591 1.77247,-1.50408 0,-1.05513 -0.34981,-1.33102 -1.6877,-1.33102 H 595.141 v -6.79872 c 0,-6.6341 0.0362,-6.80295 1.51906,-6.97349 1.22007,-0.14039 1.56009,-0.5783 1.72843,-2.22579 l 0.20939,-2.05103 h -2.74094 -2.74109 l -0.0151,-14.35719 c 0,-7.89646 -0.23351,-14.63502 -0.5064,-14.97461 -0.9321,-1.16046 -13.28985,-8.40709 -14.33659,-8.40709 -0.41575,0 -0.67354,2.91612 -0.67354,7.61912 0,7.4849 -0.0272,7.6222 -1.5189,7.7939 -1.58408,0.18228 -1.73538,0.87475 -4.97065,22.73606 -0.21738,1.46918 -0.68455,2.3245 -1.2697,2.3245 -1.34618,0 -1.25099,0.41143 -4.61313,-19.96332 -0.78683,-4.76825 -0.8701,-4.92788 -2.65842,-5.09553 l -1.8461,-0.17305 v -37.15562 -37.15562 h 1.634 c 1.91414,0 1.95305,-0.1089 3.41372,-9.57146 1.06968,-6.92887 2.22473,-13.39768 2.75889,-15.45107 0.55724,-2.14281 2.20513,-1.44443 2.58104,1.09389 3.70577,25.02724 3.46652,23.92864 5.2123,23.92864 1.19338,0 1.27695,0.51485 1.27695,7.86367 0,5.64098 0.23849,8.01487 0.84385,8.39863 0.46417,0.29424 2.36276,0.82661 4.21927,1.18307 1.8565,0.35646 7.6283,1.63581 12.82642,2.843 17.2578,4.00789 25.6203,5.90802 28.69084,6.51914 1.67081,0.33254 3.5694,0.72962 4.21926,0.88239 1.11779,0.26282 1.18131,-1.96878 1.18175,-41.46329 l 3.1e-4,-41.74106 3.51374,-2.46123 c 1.93268,-1.35367 4.2108,-2.90981 5.0628,-3.45807 l 1.54892,-0.99685 v 15.00355 15.00356 l -2.70035,2.48543 -2.7002,2.48542 v 28.23378 28.23377 l 1.80913,0.5573 c 3.97972,1.22588 4.54751,1.00799 5.08589,-1.95173 1.96362,-10.79233 4.04187,-21.48622 4.33421,-22.30086 0.3183,-0.88672 1.31436,-0.95728 11.57982,-0.8204 l 11.23165,0.14978 0.88896,5.78973 c 0.48876,3.18435 1.56884,8.96824 2.40001,12.85309 1.65151,7.71951 1.59811,7.66443 6.09131,6.28039 l 1.80915,-0.5573 v -28.19319 -28.19318 l -2.70036,-2.37345 -2.70021,-2.37343 v -14.88854 c 0,-9.41351 0.24151,-14.8215 0.65694,-14.70622 0.36144,0.10021 2.63459,1.53598 5.05165,3.19047 l 4.39456,3.00818 0.0151,41.74106 c 0.015,39.49208 0.0754,41.72609 1.19292,41.46329 0.64971,-0.15277 2.54829,-0.55062 4.21911,-0.8841 1.67081,-0.3335 6.68338,-1.44941 11.13887,-2.47983 10.17511,-2.35317 25.78895,-5.93036 30.88479,-7.07579 l 3.88167,-0.87253 v -8.18882 -8.18883 h 1.56611 c 1.53234,0 1.61439,-0.283 3.80655,-13.12657 1.67607,-9.81976 2.47211,-13.12657 3.15953,-13.12657 0.50535,0 0.92154,0.30765 0.92502,0.68368 0,0.37601 1.06212,6.09838 2.35294,12.71636 1.29083,6.61798 2.35129,12.21728 2.35673,12.44289 0,0.22561 0.76917,0.41021 1.69751,0.41021 h 1.6877 v 37.19195 37.19193 h -1.67489 c -1.18959,0 -1.7699,0.35652 -2.00282,1.23063 -0.34289,1.28663 -3.35219,16.83601 -4.12815,21.33067 -0.25645,1.48605 -0.80191,2.59796 -1.27453,2.59796 -0.5613,0 -1.41723,-3.46253 -2.67003,-10.80207 -2.63715,-15.4495 -2.31841,-14.35719 -4.1891,-14.35719 H 735.556 v -7.65715 c 0,-4.21144 -0.22779,-7.64198 -0.50626,-7.62342 -0.27846,0.0186 -3.54421,1.83211 -7.25707,4.0301 l -6.75082,3.99638 -0.17966,14.83932 -0.17951,14.83934 h -2.6895 c -2.637,0 -2.6895,0.0384 -2.6895,1.96549 0,1.50552 0.31604,2.03245 1.35011,2.25154 1.25853,0.26664 1.35025,0.74605 1.35025,7.05903 0,6.40834 -0.0725,6.77297 -1.35025,6.77297 -0.99003,0 -1.35011,0.36463 -1.35011,1.36734 0,1.06765 0.34515,1.36736 1.57443,1.36736 1.17406,0 1.76297,0.45196 2.31599,1.77756 0.40789,0.97765 1.96224,4.16957 3.4543,7.09316 1.4919,2.92358 3.00251,6.60748 3.3567,8.18642 0.3542,1.57896 0.9772,2.96083 1.3845,3.07082 0.44214,0.11941 0.74067,1.72427 0.74067,3.98299 v 3.78301 H 705.51505 682.9 v -3.77007 c 0,-2.6607 0.26821,-3.85345 0.91143,-4.05345 0.5141,-0.15979 1.08808,-1.49089 1.31631,-3.05233 0.22266,-1.52294 1.43835,-4.68288 2.70156,-7.02211 1.26322,-2.33922 2.82195,-5.54527 3.46367,-7.12457 0.98006,-2.41236 1.42779,-2.87143 2.80006,-2.87143 1.29233,0 1.63341,-0.28558 1.63341,-1.36736 0,-1.00271 -0.35993,-1.36734 -1.35011,-1.36734 -1.27755,0 -1.35025,-0.36463 -1.35025,-6.77297 0,-6.31298 0.0919,-6.79239 1.35025,-7.05903 1.03422,-0.21909 1.35011,-0.74602 1.35011,-2.25154 0,-1.92845 -0.0513,-1.96549 -2.70036,-1.96549 h -2.70021 v -5.37826 c 0,-2.95803 -0.18887,-5.53125 -0.41967,-5.71828 -0.426,-0.34504 -8.10801,3.74116 -10.88786,5.79143 -1.37831,1.01655 -1.51891,1.61777 -1.51891,6.49433 v 5.37406 h -4.05046 -4.05046 v 4.10205 4.10206 h 4.05046 4.05046 v 13.94697 13.94698 h -4.05046 -4.05046 v 6.2568 6.25679 l -2.53156,0.16976 -2.53156,0.16975 -0.54803,3.28164 c -0.3014,1.80491 -1.74442,9.69691 -3.20661,17.53779 -1.46234,7.84087 -2.65858,14.54773 -2.65858,14.90413 0,0.35639 -0.72573,0.64798 -1.61257,0.64798 -1.29187,0 -1.68756,-0.35349 -1.98971,-1.77756 z"
     style="fill:#000000;stroke-width:0.60764068" />
  <path
     id="ship_01"
     d="m 123.24382,216.62717 -2.8171,-2.5237 0.1321,-32.0121 c 0.073,-17.6067 -0.01,-32.4454 -0.1735,-32.9747 -0.2492,-0.7851 -0.8204,-0.9626 -3.0982,-0.9626 h -2.7927 v -4.8478 c 0,-4.636 0.051,-4.8551 1.1566,-5.0121 1.1216,-0.1593 1.161,-0.363 1.3006,-6.7186 0.079,-3.6049 -0.037,-6.5411 -0.2571,-6.5248 -0.2205,0.016 -2.2515,0.4373 -4.51341,0.9357 l -4.1125,0.9063 -0.1448,5.6914 c -0.1336,5.2475 -0.2273,5.7129 -1.2014,5.9676 -1.4052,0.3675 -1.0743,2.016 0.4784,2.3829 0.9566,0.2261 1.6584,1.4607 3.6652,6.4483 1.3651,3.3929 2.6446,7.1519 2.84331,8.3536 0.1988,1.2016 0.5724,2.1848 0.8303,2.1848 0.2579,0 0.4689,1.5036 0.4689,3.3414 v 3.3414 h -3.82091 c -3.1982,0 -3.8627,0.1466 -4.078,0.8996 -0.2792,0.9765 -3.7106,14.0115 -5.6498,21.4621 -1.1655,4.4779 -1.2518,4.6266 -2.686297,4.6266 -1.4757,0 -1.4886,-0.028 -2.9589,-6.4258 -0.8123,-3.5342 -2.2108,-9.5487 -3.1078,-13.3656 l -1.631,-6.9399 -3.969598,-0.1501 -3.9697,-0.1502 v -3.3198 c 0,-2.3699 0.19,-3.3197 0.6639,-3.3197 0.3984,0 0.9994,-1.4298 1.5029,-3.5754 0.4615,-1.9665 1.6664,-5.4077 2.6776,-7.6472 1.0111,-2.2394 1.838398,-4.4321 1.838398,-4.8725 0,-0.4914 0.5462,-0.8636 1.4137,-0.9634 1.8134,-0.2087 2.0209,-2.1327 0.2571,-2.3832 -1.081,-0.1535 -1.1567,-0.4142 -1.1567,-3.984 0,-2.1008 -0.1474,-3.8197 -0.3276,-3.8197 -0.1802,0 -4.401898,0.9116 -9.381698,2.026 -4.9797,1.1142 -13.4493,2.9791 -18.8212,4.1442 -5.372,1.165 -10.1142,2.3016 -10.5383,2.5257 -0.5405,0.2856 -0.8166,1.4293 -0.9231,3.8238 -0.1443,3.2431 -0.216,3.4162 -1.4137,3.4162 h -1.2617 v 7.1969 7.1969 h -3.0844 -3.0843 v -7.1969 -7.1969 h -1.2108 c -1.1203,0 -1.2351,-0.2597 -1.5344,-3.4699 -0.2049,-2.198 -0.609,-3.6791 -1.1024,-4.0406 -0.5699,-0.4176 -0.779,-1.5559 -0.779,-4.2411 0,-2.9197 -0.1577,-3.6703 -0.7711,-3.6703 -0.5826,0 -0.7711,-0.6283 -0.7711,-2.5703 0,-1.942 0.1885,-2.5703 0.7711,-2.5703 0.6169,0 0.7711,-0.7711 0.7711,-3.8555 0,-3.5127 0.091,-3.8554 1.0281,-3.8554 0.9368,0 1.0281,-0.3428 1.0281,-3.8555 0,-3.0623 0.1566,-3.8555 0.7613,-3.8555 0.4188,0 0.9011,-0.6362 1.0719,-1.4137 1.1284,-5.1375 3.7125,-13.714799 4.1786,-13.870199 0.3357,-0.1119 1.3019,2.8536 2.4177,7.420199 1.0221,4.1837 2.0883,7.6838 2.3692,7.778 0.2809,0.094 0.5108,1.7931 0.5108,3.7751 0,3.1714 0.1233,3.636 1.0281,3.8726 0.5654,0.1479 1.0281,0.5889 1.0281,0.98 0,0.3911 0.1885,0.7111 0.4188,0.7111 0.8056,0 35.2804,-11.8466 35.7022,-12.2684 0.2341,-0.2342 0.3571,-2.137 0.2731,-4.2285 l -0.1526,-3.802699 -6.5996,-3.2182 c -3.6297,-1.77 -6.8105,-3.0878 -7.0684,-2.9285 -0.2578,0.1594 -0.4688,1.1764 -0.4688,2.26 0,1.6728 -0.1939,2.0189 -1.2851,2.2927 l -1.2852,0.3226 v 7.187099 7.187 h -3.0702 -3.0703 l -0.1427,-7.3254 c -0.1393,-7.155799 -0.1693,-7.329099 -1.2992,-7.489599 -1.0724,-0.1523 -1.1567,-0.4237 -1.1567,-3.727 0,-2.8241 -0.1598,-3.5627 -0.7711,-3.5627 -0.5985,0 -0.7711,-0.6807 -0.7711,-3.042304 0,-3.5083 -0.333,-4.6686 -1.3401,-4.6686 -0.5253,0 -0.7161,-0.7534 -0.7161,-2.8274 0,-2.4846 0.1246,-2.8273 1.0281,-2.8273 0.9302,0 1.0281,-0.3428 1.0281,-3.5985 0,-2.8559 0.1592,-3.5984 0.7711,-3.5984 0.608,0 0.7711,-0.722 0.7711,-3.4133 0,-2.44 0.2202,-3.576 0.7721,-3.984 0.4247,-0.3139 1.5747,-3.7628 2.5557,-7.6644 1.8366,-7.3052 2.1016,-8.0712 2.7921,-8.0712 0.2225,0 1.1578,3.1808 2.0783,7.0684 0.9205,3.8876 1.9971,7.5807 2.3925,8.2069 0.4136,0.6552 0.7187,2.4762 0.7187,4.2892 0,2.692 0.146,3.1887 1.0031,3.4129 0.7999,0.2092 1.0343,0.7903 1.1567,2.8673 l 0.1535,2.605 2.8274,0.8949 c 3.0299,0.9589 12.862198,4.0308 22.875795,7.1471 10.3554,3.2227 13.41251,4.1193 14.04471,4.1193 0.4026,0 0.6061,-1.1103 0.6061,-3.3072 0,-3.2258 0.035,-3.3113 1.4137,-3.47 l 1.4136,-0.1626 0.1418,-7.8079 0.1417,-7.8079 1.6117,-0.1601 c 1.8006,-0.1789 2.1194,-0.8643 4.9766,-10.6984 l 1.4188,-4.8836 h 8.4065 8.4064 l 0.784,2.3133 c 0.4311,1.2723 1.4955,4.7422 2.3653,7.711 1.5574,5.3163 1.6061,5.4 3.2296,5.5577 l 1.6483,0.1601 0.1418,7.8079 0.1417,7.8079 1.4137,0.1626 c 1.366,0.1572 1.4136,0.2661 1.4136,3.2291 0,2.2167 0.2084,3.1463 0.752,3.3549 0.4136,0.1587 5.098,-1.0912 10.4098,-2.7775 5.3118,-1.6864 13.5904,-4.2685 18.3969,-5.738 12.0229,-3.676 11.0523,-3.1326 11.0523,-6.1881 0,-2.2386 0.1366,-2.5813 1.0282,-2.5813 0.9295,0 1.0281,-0.3427 1.0281,-3.5729 0,-2.5047 0.213,-3.6958 0.7124,-3.984 0.3919,-0.2261 1.0873,-2.2617 1.5455,-4.5236 2.0937,-10.3361 3.3917,-13.3123 4.2037,-9.6387 1.7539,7.9347 3.7296,14.5223 4.3555,14.5223 0.2708,0 0.4923,1.6193 0.4923,3.5984 0,3.2558 0.098,3.5985 1.0281,3.5985 0.9303,0 1.0281,0.3427 1.0281,3.5984 0,2.8559 0.1592,3.5985 0.7711,3.5985 0.592,0 0.7711,0.6568 0.7711,2.8273 0,2.1705 -0.1791,2.8274 -0.7711,2.8274 -0.6157,0 -0.7711,0.7644 -0.7711,3.7955 0,3.363204 -0.117,3.826104 -1.0281,4.064404 -0.8955,0.2342 -1.0281,0.7012 -1.0281,3.6226 0,3.0866 -0.092,3.3669 -1.1566,3.5181 -1.1299,0.1605 -1.16,0.3338 -1.2993,7.489599 l -0.1426,7.3254 h -3.0562 -3.0561 l -0.1427,-7.3254 c -0.1393,-7.155799 -0.1694,-7.329099 -1.2992,-7.489599 -1.0008,-0.1422 -1.1567,-0.4713 -1.1567,-2.4418 0,-1.2527 -0.1735,-2.2805 -0.3855,-2.284 -0.2121,0 -3.335,1.4279 -6.9399,3.1811 l -6.5543,3.1876 v 4.254699 4.2546 l 4.7551,1.5103 c 5.017,1.5935 10.7431,3.531 12.466,4.2181 1.7721,0.7067 18.0766,6.1313 18.4285,6.1313 0.1842,0 0.3348,-0.32 0.3348,-0.7111 0,-0.3911 0.4627,-0.8321 1.0282,-0.98 0.9062,-0.237 1.0281,-0.7012 1.0281,-3.9154 0,-2.7258 0.1759,-3.6466 0.6967,-3.6466 0.4598,0 0.9924,-1.4427 1.566,-4.241 1.7792,-8.680599 2.4792,-11.180899 3.1304,-11.180899 0.3606,0 0.7937,0.5205 0.9624,1.1566 0.1686,0.6362 1.0399,4.106099 1.9361,7.710999 1.0829,4.3555 1.8625,6.5543 2.3237,6.5543 0.5175,0 0.6941,0.9277 0.6941,3.6466 0,3.2142 0.1219,3.6784 1.0281,3.9154 0.9111,0.2382 1.0281,0.7012 1.0281,4.0644 0,3.0311 0.1553,3.7955 0.7711,3.7955 0.5826,0 0.7711,0.6283 0.7711,2.5703 0,1.942 -0.1885,2.5703 -0.7711,2.5703 -0.6158,0 -0.7711,0.765 -0.7711,3.8005 0,2.8261 -0.1889,3.873 -0.737,4.0833 -0.4914,0.1886 -0.8563,1.4922 -1.0946,3.9105 -0.3324,3.3735 -0.4428,3.6276 -1.5762,3.6276 h -1.2187 v 7.1969 7.1969 h -3.0844 -3.0844 v -7.1969 -7.1969 h -1.2851 c -1.2261,0 -1.2852,-0.1398 -1.2852,-3.0423 0,-3.7083 -0.3297,-4.6686 -1.6027,-4.6686 -0.5382,0 -5.1979,-0.9414 -10.3548,-2.092 -5.1569,-1.1507 -13.4047,-2.9914 -18.3284,-4.0906 -4.9237,-1.0992 -9.1454,-1.8791 -9.3816,-1.7331 -0.2362,0.146 -0.4295,1.8711 -0.4295,3.8335 0,3.2254 -0.099,3.5681 -1.0281,3.5681 -0.754,0 -1.0281,0.3428 -1.0281,1.2852 0,1.0171 0.2597,1.2852 1.2453,1.2852 0.9871,0 1.3726,0.3996 1.8595,1.9277 0.3378,1.0603 1.4054,3.7514 2.3724,5.9804 0.967,2.229 1.8963,5.0602 2.0651,6.2917 0.1688,1.2314 0.6227,2.5012 1.0089,2.8216 0.4465,0.3706 0.7019,1.6743 0.7019,3.5824 v 2.9998 l -3.984,0.1502 -3.984,0.1501 -0.5931,2.0563 c -0.5341,1.8516 -3.2567,12.3255 -5.579,21.4621 -0.8127,3.1979 -0.9895,3.47 -2.2553,3.47 -1.3459,0 -1.411,-0.1565 -3.2596,-7.8395 -1.0375,-4.3117 -2.3874,-10.1528 -2.9999,-12.9801 -0.6125,-2.8274 -1.3459,-5.4298 -1.6298,-5.7832 -0.3227,-0.4018 -1.8413,-0.6426 -4.0517,-0.6426 h -3.5355 v -3.2864 c 0,-2.2872 0.2113,-3.3676 0.695,-3.5532 0.3823,-0.1466 0.8408,-1.3301 1.0189,-2.6299 0.1782,-1.2997 1.2293,-4.5009 2.3358,-7.1137 1.1065,-2.6127 2.0958,-5.2131 2.1983,-5.7786 0.1232,-0.6787 0.6655,-1.0834 1.5959,-1.1908 1.1057,-0.1276 1.4093,-0.4321 1.4093,-1.4136 0,-0.9917 -0.2665,-1.2511 -1.2852,-1.2511 h -1.2852 v -5.8045 -5.8045 l -3.984,-0.8394 c -2.1912,-0.4616 -4.1651,-0.6641 -4.3866,-0.45 -0.2214,0.2142 -0.3371,3.1461 -0.257,6.5154 0.1404,5.9107 0.1862,6.1318 1.3022,6.2903 1.1061,0.157 1.1567,0.3761 1.1567,5.0121 v 4.8478 h -2.8274 -2.8274 v 32.9593 32.9593 l -1.9277,1.7804 c -3.9423,3.6411 -3.7269,4.1095 -3.7269,-8.1041 v -10.8679 l 1.5422,-1.9472 1.5422,-1.9472 v -22.4162 -22.4164 h -13.6228 -13.6226 v 22.7229 22.7228 l 1.5525,1.6018 1.5524,1.6017 -0.1388,11.1738 -0.1388,11.1738 z"
     style="fill:#000000;stroke-width:0.51406354">
    <title
       id="title5723">ship_01</title>
  </path>
  <path
     id="ship_06"
     d="m 344.14399,551.32163 c -0.6636,-5.0743 -1.57339,-12.2751 -2.02176,-16.0017 -0.44838,-3.7266 -0.96054,-7.0108 -1.13815,-7.2982 -0.1776,-0.2873 -1.17581,-0.5225 -2.21823,-0.5225 h -1.89532 v -6.3342 -6.3343 h -3.30484 -3.30484 v -14.0456 -14.0456 h 3.30484 3.30484 v -6.3342 -6.3343 h -3.30484 -3.30484 v -27.8158 c 0,-15.2986 -0.18589,-27.7968 -0.4131,-27.7737 -0.22721,0.023 -2.02422,0.7075 -3.99336,1.5208 l -3.58026,1.4789 -0.1472,13.2433 -0.1473,13.2434 -2.7445,2.7032 -2.7444,2.7032 -0.022,25.3578 -0.022,25.3578 -4.2465,3.4709 -4.2464,3.4708 -0.1456,-17.1475 -0.1456,-17.1475 2.2111,-2.512 2.2111,-2.5119 v -6.875 c 0,-7.6696 0.243,-7.4233 -3.7179,-3.7691 l -1.7901,1.6516 v -20.2235 -20.2235 l 1.377,-3.3888 c 1.3125,-3.2301 1.377,-3.9133 1.377,-14.5854 v -11.1966 h -3.0294 -3.0294 v 8.1967 8.1968 l -1.9279,1.4704 -1.9278,1.4704 v 11.3094 c 0,6.5969 -0.2098,11.2329 -0.5034,11.1258 -0.2769,-0.101 -2.3838,-1.7887 -4.6819,-3.7504 l -4.1784,-3.5667 v -8.1379 -8.1379 h -3.3048 -3.3049 v 8.1648 8.1647 l -4.6819,3.9866 -4.6818,3.9866 v -17.2662 -17.2663 l 4.7115,-5.3272 4.7114,-5.3272 -0.1673,-2.915 c -0.1459,-2.543 -0.3254,-2.9374 -1.4066,-3.0909 -1.2061,-0.1713 -1.2393,-0.352 -1.2393,-6.7474 0,-6.2042 -0.062,-6.5714 -1.1016,-6.5714 -1.0429,0 -1.1016,-0.3672 -1.1016,-6.885 0,-5.7529 -0.1359,-6.8851 -0.8262,-6.8851 -0.6765,0 -0.8263,-0.9486 -0.8263,-5.2327 0,-4.284 0.1498,-5.2326 0.8263,-5.2326 0.6903,0 0.8262,-1.1323 0.8262,-6.8851 0,-6.5179 0.059,-6.8851 1.1016,-6.8851 1.0428,0 1.1016,-0.3672 1.1016,-6.8851 0,-5.2662 0.1676,-6.8851 0.7128,-6.8851 0.4901,0 1.1128,-2.4533 1.9925,-7.849 1.2568,-7.7086 2.7509,-18.1979 2.7853,-19.5536 0.01,-0.3787 0.3549,-0.6885 0.7673,-0.6885 0.8193,0 1.8408,5.8322 3.4248,19.5536 0.5838,5.0573 1.156,7.9218 1.6626,8.3228 0.5653,0.4476 0.7724,2.0107 0.7724,5.8294 0,2.8698 0.1569,5.3748 0.3488,5.5666 0.1918,0.1918 1.4311,-0.4285 2.754,-1.3786 l 2.4053,-1.7273 v -6.2409 c 0,-4.9673 0.1566,-6.241 0.7673,-6.241 1.191,0 1.4359,-1.289 1.4359,-7.5579 0,-4.3674 0.1946,-5.9676 0.7817,-6.4269 0.5229,-0.4091 1.0724,-3.2041 1.6603,-8.4447 1.4714,-13.1184 2.5826,-19.4317 3.4202,-19.4317 0.4111,0 0.7484,0.3098 0.7496,0.6885 0,0.8461 2.4188,17.3619 3.3518,22.91 0.3924,2.3333 0.992,4.1645 1.4172,4.3276 0.5605,0.2151 0.7369,1.9168 0.7369,7.109 0,6.7118 0.021,6.8261 1.2394,6.8261 0.6816,0 2.6645,-1.011 4.4064,-2.2467 l 3.1672,-2.2468 v -31.077 -31.077 h 1.92777 1.92784 v 29.1927 c 0,20.3119 0.17875,29.1928 0.58755,29.1928 0.32318,0 1.43856,-0.6491 2.47863,-1.4424 l 1.89107,-1.4424 v -10.9142 -10.9141 l 1.51003,-0.1743 c 0.83207,-0.096 1.55823,-0.5452 1.61739,-1.0005 0.0591,-0.4544 0.25757,-1.9722 0.44111,-3.3727 0.44,-3.358 3.05306,-6.7256 6.58381,-8.4851 3.86916,-1.928 9.46504,-1.9187 13.2865,0.022 3.85883,1.9599 6.35651,5.4562 6.79192,9.5075 0.3153,2.9338 0.44494,3.1666 1.85373,3.3287 l 1.51472,0.1743 v 11.1817 11.1818 l 2.19141,1.4502 c 1.20528,0.7976 2.32067,1.4502 2.47863,1.4502 0.15797,0 0.28722,-13.2606 0.28722,-29.4682 v -29.4681 h 1.92327 1.92328 l 0.14225,31.2352 0.14224,31.2353 2.75404,2.0858 c 1.51472,1.1471 3.31173,2.087 3.99335,2.0885 1.21731,0 1.23931,-0.1159 1.23931,-6.6839 0,-4.9134 0.19552,-6.8488 0.73728,-7.2982 0.46447,-0.3852 1.39729,-5.2991 2.52102,-13.28 1.92008,-13.6369 2.10091,-14.5964 2.75077,-14.5964 0.45716,0 4.48475,23.4815 4.46692,26.0429 -0.006,0.8615 0.35091,1.6707 0.81555,1.849 0.67082,0.2575 0.82621,1.5588 0.82621,6.9194 0,6.1391 0.0773,6.6225 1.10161,6.8904 1.01583,0.2657 1.10161,0.7513 1.10161,6.237 v 5.949 l 2.32464,1.931 c 1.27855,1.062 2.51787,1.8115 2.75404,1.6656 0.23616,-0.146 0.42939,-2.7294 0.42939,-5.741 0,-4.1728 0.17328,-5.4755 0.72829,-5.4755 0.6997,0 1.39038,-4.2404 3.74562,-22.9962 0.45342,-3.6108 0.85769,-5.095 1.38779,-5.095 0.41139,0 0.74798,0.1552 0.74798,0.3449 0,0.1897 0.35662,2.6063 0.79249,5.3703 0.43587,2.7641 1.35141,8.8412 2.03454,13.5048 1.03899,7.0931 1.40467,8.5218 2.23693,8.7395 0.89177,0.2332 0.99491,0.9672 0.99491,7.081 0,5.6958 0.13628,6.8208 0.82621,6.8208 0.69034,0 0.82621,1.1322 0.82621,6.8851 0,6.5179 0.0588,6.8851 1.10161,6.8851 1.02431,0 1.10162,0.3672 1.10162,5.2326 0,4.8655 -0.0773,5.2327 -1.10162,5.2327 -1.04285,0 -1.10161,0.3672 -1.10161,6.8851 0,5.7529 -0.13587,6.8851 -0.82621,6.8851 -0.68825,0 -0.82621,1.0975 -0.82621,6.5731 v 6.5731 l -1.51472,0.1742 c -1.40954,0.1622 -1.52618,0.3723 -1.67979,3.0252 l -0.16506,2.8509 4.70922,5.2994 4.70922,5.2994 v 17.0491 c 0,9.377 -0.14065,17.0492 -0.31257,17.0492 -0.17192,0 -2.27875,-1.6712 -4.68185,-3.7138 l -4.36929,-3.7137 v -8.1286 -8.1286 h -3.30484 -3.30484 v 8.1722 8.1723 l -4.26875,3.6141 -4.26875,3.614 -0.14898,-10.9206 -0.14898,-10.9207 -1.77885,-1.4951 -1.77884,-1.4951 -0.2754,-8.3212 -0.2754,-8.3212 -3.16714,-0.1651 -3.16714,-0.1652 v 11.002 c 0,10.9402 0.009,11.0251 1.65242,15.1287 l 1.65242,4.1267 v 19.992 19.992 l -2.63525,-2.5956 c -1.44939,-1.4277 -2.81264,-2.5957 -3.02944,-2.5957 -0.2168,0 -0.39418,3.0096 -0.39418,6.688 v 6.688 l 2.48653,2.9105 2.48654,2.9106 -0.14561,17.067 -0.14561,17.0671 -4.54415,-3.8386 -4.54416,-3.8386 v -25.1886 -25.1886 l -2.75403,-2.7127 -2.75403,-2.7126 v -13.0882 -13.0882 l -1.71504,-0.8869 c -0.94327,-0.4878 -2.67831,-1.2268 -3.85565,-1.6422 l -2.1406,-0.7552 v 27.7913 27.7913 h -3.30484 -3.30484 v 6.3343 6.3343 h 3.30484 3.30484 v 14.0455 14.0456 h -3.30484 -3.30484 v 6.3026 6.3026 l -2.34093,0.1694 -2.34093,0.1694 -0.45955,3.8556 c -0.25276,2.1206 -1.30617,9.3574 -2.34093,16.0817 -1.03476,6.7244 -1.88137,12.3633 -1.88137,12.5309 0,0.1676 -0.57063,0.3048 -1.26808,0.3048 -1.22506,0 -1.30898,-0.3129 -2.4746,-9.226 z m -45.41676,-174.1086 c 3.1135,-3.4667 4.5441,-5.4902 4.5441,-6.4274 0,-0.7523 -0.2451,-1.3679 -0.5447,-1.3679 -1.4075,0 -9.1411,2.4088 -9.4991,2.9587 -0.2225,0.3418 -0.4084,3.1449 -0.4131,6.229 -0.01,5.3928 -0.056,5.6142 -1.2477,5.7835 -1.0763,0.1529 -1.261,0.5498 -1.4041,3.0177 -0.1475,2.5442 0.026,3.059 1.6524,4.9155 l 1.8172,2.0737 0.2754,-6.0616 0.2754,-6.0617 z m 104.67678,10.3881 c -0.14189,-2.6711 -0.3103,-3.0574 -1.4006,-3.2122 -1.19906,-0.1703 -1.23931,-0.3719 -1.23931,-6.2084 0,-6.8621 0.52833,-6.1527 -5.93879,-7.9736 -6.03667,-1.6997 -5.85836,0.3169 0.67753,7.663 l 4.15964,4.6752 v 5.9375 5.9375 l 1.95141,-1.8914 c 1.8292,-1.7729 1.9413,-2.0815 1.79012,-4.9276 z m -79.81236,-16.2556 c 5.03884,-5.4235 6.65462,-7.5183 6.6609,-8.6354 l 0.008,-1.475 -4.81953,1.3035 c -2.65079,0.7169 -7.17429,2.031 -10.05229,2.9202 l -5.2326,1.6167 -0.1644,2.4623 c -0.1515,2.2691 0.062,2.7298 2.7202,5.8733 1.5866,1.8761 3.1866,3.3399 3.5557,3.253 0.3691,-0.087 3.6647,-3.3803 7.32371,-7.3186 z m 57.2834,4.0452 c 2.63918,-3.1208 2.85431,-3.5862 2.70302,-5.8484 l -0.16438,-2.4577 -3.30484,-1.0485 c -5.60822,-1.7794 -14.74886,-4.3297 -15.51811,-4.3297 -0.43127,0 -0.72837,0.6207 -0.72504,1.5147 0.004,1.1774 1.48667,3.0787 6.65604,8.5375 3.65772,3.8626 6.83839,7.0228 7.06815,7.0228 0.22977,0 1.70809,-1.5258 3.28516,-3.3907 z"
     style="fill:#000000;stroke-width:0.55080664" />
  <path
     id="ship_02"
     d="m 319.59793,223.13289 c -1.4272,-6.4042 -5.2808,-23.0378 -5.5139,-23.8005 -0.1415,-0.4628 -1.4923,-0.6762 -4.2806,-0.6762 h -4.0738 v -3.4581 c 0,-2.5749 0.2072,-3.5376 0.8114,-3.7695 0.4462,-0.1712 0.8194,-0.9884 0.8293,-1.8159 0.01,-0.8274 0.8779,-3.6952 1.9289,-6.3727 1.0511,-2.6776 2.3066,-6.0245 2.7899,-7.4377 0.708,-2.0696 1.1218,-2.5693 2.128,-2.5693 0.8884,0 1.249,-0.3124 1.249,-1.0819 0,-0.7212 -0.3606,-1.0818 -1.0818,-1.0818 -1.0217,0 -1.0819,-0.3607 -1.0819,-6.4911 0,-6.1304 0.06,-6.491 1.0819,-6.491 0.8757,0 1.0818,-0.3606 1.0818,-1.8932 0,-1.8445 -0.055,-1.8932 -2.1389,-1.8932 h -2.139 l -0.1599,-3.6513 -0.16,-3.6512 -2.8147,-0.1626 -2.8147,-0.1626 -0.1604,-3.3534 c -0.1601,-3.3498 -0.1622,-3.3535 -1.9183,-3.5228 -1.7231,-0.1662 -1.758,-0.2226 -1.758,-2.8398 v -2.6704 h 1.8932 c 1.8482,0 1.8932,-0.052 1.8932,-2.1637 0,-2.1121 -0.045,-2.1637 -1.8932,-2.1637 h -1.8932 v -2.6703 c 0,-2.6173 0.035,-2.6737 1.758,-2.8398 l 1.758,-0.1695 0.1435,-15.5515 0.1435,-15.5514 h -1.9015 -1.9015 v -2.6703 c 0,-2.617298 0.035,-2.673698 1.758,-2.839898 1.7579,-0.1695 1.758,-0.1696 1.919,-3.5502 l 0.1611,-3.3808 h 2.6534 c 2.6102,0 2.6704,-0.038 3.6918,-2.3473 1.386,-3.1332 4.2761,-5.9305 6.9572,-6.7338 2.7022,-0.8096 7.8556,-0.8431 10.643,-0.069 2.7317,0.7585 6.6771,4.7811 7.1472,7.2873 0.3353,1.7872 0.446,1.8629 2.7235,1.8629 h 2.3739 v 2.6604 c 0,3.6404 0.3716,4.3716 2.2216,4.3716 1.5145,0 1.5648,0.086 1.5648,2.670298 0,2.6173 -0.035,2.6737 -1.7579,2.8398 -1.6622,0.1603 -1.7581,0.2876 -1.7581,2.3332 0,1.9584 0.1224,2.1503 1.2885,2.0222 0.7087,-0.078 2.3518,-0.6118 3.6513,-1.1866 l 2.3627,-1.0452 v -19.214298 -19.2142 l -1.6344,-1.8615 -1.6344,-1.8614 0.1469,-10.6512 0.1468,-10.6512 2.5694,2.2623 2.5694,2.2623 v 29.2088 c 0,23.158298 0.14,29.149798 0.6761,28.923898 0.3719,-0.1566 1.7107,-0.5709 2.9751,-0.9206 l 2.2989,-0.6358 v -13.458798 -13.4588 h 1.8221 1.8221 l 0.2535,-3.9513 c 0.3297,-5.1371 2.2145,-9.2871 5.8076,-12.7868 3.5486,-3.4564 7.4488,-4.9742 13.6511,-5.3123 12.7475,-0.695 22.0808,7.4094 22.0808,19.1735 v 2.8769 h 1.8933 1.8932 v 5.1019 c 0,5.014 0.027,5.1212 1.5711,6.2206 0.864,0.6152 1.8203,1.1187 2.125,1.1187 0.3696,0 0.5332,-7.0107 0.4914,-21.0678 l -0.063,-21.0677 2.4002,-2.1697 c 1.3201,-1.1933 2.5828,-2.1796 2.8059,-2.1918 0.2231,-0.012 0.4057,4.6909 0.4057,10.4514 v 10.4735 l -1.6228,2.042 -1.6227,2.042 v 11.789 11.7891 l 1.571,1.1186 c 2.0848,1.4845 2.2154,1.4379 2.2154,-0.7915 0,-1.1989 0.3021,-2.0261 0.8114,-2.2216 0.6041,-0.2318 0.8113,-1.1945 0.8113,-3.7694 0,-2.6183 0.1856,-3.4581 0.7642,-3.4581 0.6847,0 2.2091,-5.321 3.8356,-13.3878 0.7073,-3.5078 1.7082,-1.9198 3.5259,5.5936 1.0315,4.2636 2.0842,7.4688 2.5061,7.6308 0.5045,0.1935 0.7276,1.3394 0.7276,3.7373 0,2.7132 0.1747,3.4581 0.8113,3.4581 0.6384,0 0.8114,0.7531 0.8114,3.5329 0,2.6414 0.2048,3.6115 0.8114,3.8443 1.1172,0.4287 1.0948,4.466998 -0.029,5.288998 -1.0896,0.7967 -0.5476,2.1662 1.1665,2.9472 1.8033,0.8216 1.838,0.8088 1.838,-0.6803 0,-0.7119 0.3651,-1.4345 0.8114,-1.6058 0.6047,-0.232 0.8114,-1.1964 0.8114,-3.786398 0,-2.4282 0.2212,-3.56 0.7344,-3.7569 0.404,-0.155 0.8805,-0.9722 1.059,-1.8159 2.7208,-12.8646 3.0408,-13.9191 3.9476,-13.0123 0.1924,0.1924 0.8986,2.6103 1.5693,5.3732 2.0964,8.6354 2.4302,9.6211 3.2584,9.6211 0.6182,0 0.7905,0.8257 0.7905,3.7864 0,3.005098 0.1675,3.786498 0.8114,3.786498 0.6381,0 0.8114,0.7512 0.8114,3.5159 0,2.7647 0.1734,3.516 0.8114,3.516 0.613,0 0.8114,0.6612 0.8114,2.7046 0,2.0435 -0.1984,2.7046 -0.8114,2.7046 -0.638,0 -0.8114,0.7513 -0.8114,3.516 0,2.7647 -0.1733,3.516 -0.8114,3.516 -0.6439,0 -0.8114,0.7813 -0.8114,3.7864 0,3.6783 -0.039,3.7864 -1.3522,3.7864 h -1.3523 v 7.032 7.032 h -2.9751 -2.9751 v -7.032 -7.032 h -1.3523 c -1.2612,0 -1.3523,-0.1812 -1.3523,-2.6907 0,-2.4094 -0.1607,-2.7738 -1.5375,-3.4858 -2.7032,-1.3978 -7.27,-2.9885 -7.7422,-2.6967 -0.2512,0.1553 -0.4568,2.4714 -0.4568,5.147 v 4.8646 l -2.8399,-0.1635 -2.8398,-0.1635 -0.1514,-6.5674 c -0.1305,-5.6594 -0.2801,-6.6068 -1.0818,-6.8528 -0.5118,-0.157 -3.1657,-1.2701 -5.8976,-2.4736 -2.7319,-1.2034 -5.5921,-2.345 -6.3558,-2.5367 l -1.3887,-0.3485 v 17.3147 17.3146 l 1.9242,1.1353 c 1.0582,0.6244 2.0244,1.1352 2.147,1.1352 0.1226,0 0.2912,-2.9452 0.3747,-6.5449 l 0.1519,-6.5449 5.8149,6.4958 5.8149,6.4957 v 22.7824 22.7824 l -5.9501,-4.9701 -5.9501,-4.97 v -13.4286 -13.4285 l -1.9593,-0.8187 c -1.0776,-0.4502 -2.0513,-0.8186 -2.1637,-0.8186 -0.1124,0 -0.2044,1.9352 -0.2044,4.3004 v 4.3003 l -3.1103,0.1623 -3.1103,0.1622 -0.1548,5.2739 -0.1548,5.274 h -4.3078 c -4.2343,0 -4.3078,0.023 -4.3078,1.3523 0,1.1403 0.2531,1.3523 1.6137,1.3523 1.4039,0 1.8001,0.3692 3.0478,2.8399 0.7888,1.5619 2.1114,3.8278 2.939,5.0353 0.8277,1.2075 1.9122,3.5968 2.4101,5.3096 0.498,1.7128 1.2485,3.2459 1.668,3.4069 0.5368,0.206 0.7626,1.2363 0.7626,3.4803 v 3.1876 h -21.9073 -21.9072 v -3.2455 c 0,-2.4794 0.1857,-3.2456 0.7869,-3.2456 0.4867,0 0.9194,-0.7734 1.1347,-2.0284 0.1913,-1.1157 1.5129,-4.0975 2.937,-6.6263 1.424,-2.5288 2.9886,-5.3889 3.477,-6.3558 0.7021,-1.3903 1.2243,-1.758 2.4967,-1.758 1.3555,0 1.6089,-0.2129 1.6089,-1.3523 0,-1.3297 -0.072,-1.3523 -4.3274,-1.3523 h -4.3274 v -5.4092 -5.4092 h -3.2455 -3.2455 v -19.5206 -19.5207 l -2.2989,0.3614 c -4.3853,0.6894 -12.0391,2.5711 -12.7369,3.1314 -0.4526,0.3633 -0.6444,1.5397 -0.5409,3.3157 0.1557,2.6717 0.2122,2.7577 1.9185,2.9222 1.7196,0.1658 1.7579,0.2269 1.7579,2.8055 0,2.5787 -0.038,2.6398 -1.7579,2.8056 -1.6163,0.1558 -1.7581,0.3222 -1.7581,2.0627 0,1.7406 0.1418,1.9069 1.7581,2.0627 1.723,0.1662 1.7579,0.2226 1.7579,2.8399 0,2.5845 -0.05,2.6703 -1.5648,2.6703 -1.8474,0 -2.2216,0.7322 -2.2216,4.3469 v 2.6356 l -3.6512,0.16 -3.6512,0.1599 -0.16,3.6512 -0.1599,3.6513 h -2.139 c -2.0839,0 -2.139,0.049 -2.139,1.8932 0,1.5326 0.2061,1.8932 1.0819,1.8932 1.0217,0 1.0818,0.3606 1.0818,6.491 0,6.1304 -0.06,6.4911 -1.0818,6.4911 -0.7212,0 -1.0819,0.3606 -1.0819,1.0818 0,0.7586 0.3637,1.0846 1.2171,1.0911 0.9696,0.01 1.4759,0.64 2.4896,3.1103 2.5991,6.334 4.4071,11.6009 4.4071,12.8382 0,0.7009 0.3652,1.6396 0.8114,2.0858 0.5418,0.5418 0.8114,1.895 0.8114,4.0728 v 3.2614 l -4.1616,0.158 -4.1615,0.158 -1.8581,7.0319 c -6.0885,23.0433 -5.5301,21.3664 -7.1141,21.3664 -1.354,0 -1.4943,-0.2479 -2.3734,-4.1921 z"
     style="fill:#000000;stroke-width:0.54092014">
    <title
       id="title5725">ship_02</title>
  </path>
  <path
     id="ship_09"
     d="m 73.376083,776.82814 v -9.70208 l 10.880894,-10.99433 c 10.567197,-10.67714 10.875077,-11.06582 10.676297,-13.47202 -0.20388,-2.46804 -0.21622,-2.47766 -3.16197,-2.47766 h -2.95723 l -0.1958,4.10731 -0.19551,4.10732 h -7.166297 -7.166152 l -0.195655,-4.10732 -0.195654,-4.10731 h -3.285834 -3.285835 l -0.195654,4.10731 -0.195655,4.10732 h -7.197507 -7.197508 v -3.60887 c 0,-2.89715 -0.259218,-3.77075 -1.314391,-4.42969 -0.877537,-0.54809 -1.31439,-1.53254 -1.31439,-2.96284 0,-1.17811 -0.27298,-2.14201 -0.606685,-2.14201 -0.333564,0 -2.847279,1.20859 -5.585876,2.68577 l -4.97919,2.68576 v -2.68576 c 0,-3.05254 -0.192675,-3.11745 -4.928822,-1.66134 -3.26214,1.00287 -15.35229,4.23293 -15.844051,4.23293 -0.141882,0 -0.256664,-4.29919 -0.256664,-9.55378 v -9.55377 l 7.72176,-3.62158 c 4.246939,-1.99188 11.492261,-5.43967 16.100715,-7.66178 l 8.378813,-4.04019 v -8.00887 c 0,-7.45621 0.0908,-8.03261 1.31439,-8.35261 1.097312,-0.28695 1.314391,-0.89638 1.314391,-3.69107 v -3.34738 h 7.228863 7.228864 v 3.61444 3.61443 h 3.614432 3.614431 v -3.61443 -3.61444 h 7.228864 7.228867 v 3.61444 3.61443 h 3.28597 3.28584 v -5.23191 -5.23191 l 3.12153,-0.91759 c 1.71691,-0.50467 4.748066,-1.291 6.735966,-1.74741 1.98804,-0.4564 4.79744,-1.16392 6.24322,-1.57226 l 2.62864,-0.74244 v -6.24311 c 0,-5.97402 -0.0639,-6.25218 -1.47869,-6.45313 -1.23338,-0.17516 -1.47855,0.0973 -1.47883,1.64294 l -2.8e-4,1.85291 -10.35013,2.13976 c -5.692706,1.17686 -11.015676,2.32032 -11.828936,2.54103 -1.41187,0.38319 -1.47855,0.22597 -1.47855,-3.4839 v -3.8852 l 11.82909,-5.91465 11.829086,-5.91464 v 2.8229 c 0,2.57298 0.14543,2.82291 1.64285,2.82291 1.58397,0 1.64299,-0.15335 1.64299,-4.27162 v -4.27161 h -4.5625 -4.56234 l -0.20204,-2.79298 c -0.18969,-2.62154 -0.33328,-2.80561 -2.33792,-2.99891 l -2.13589,-0.20592 v 3.65607 c 0,2.42321 -0.26815,3.65607 -0.795526,3.65607 -0.43756,0 -2.50761,-0.66387 -4.60008,-1.47528 -3.55342,-1.37785 -3.80469,-1.61655 -3.80469,-3.61443 0,-1.84412 -0.22687,-2.13916 -1.64427,-2.13916 -1.25239,0 -2.34899,-0.95714 -4.600222,-4.01532 l -2.95596,-4.01532 0.01419,-10.27815 0.01419,-10.27814 2.781304,-3.76908 c 2.205548,-2.98901 3.155298,-3.77109 4.588448,-3.77873 l 1.80714,-0.01 v -7.88605 c 0,-6.5717 0.16444,-7.88605 0.98579,-7.88605 0.8215,0 0.9858,1.31435 0.9858,7.88605 0,6.57171 0.1643,7.88605 0.98579,7.88605 0.83086,0 0.98565,-1.49689 0.98565,-9.52897 v -9.52899 h 1.64299 c 1.60638,0 1.64299,-0.10953 1.64299,-4.92878 v -4.92878 h 1.971436 1.97159 v 4.92878 c 0,4.46781 0.12059,4.92878 1.29623,4.92878 1.22117,0 1.30687,0.54319 1.47868,9.36469 l 0.18232,9.36468 2.13574,0.20594 c 1.95542,0.18853 2.13589,0.39674 2.13589,2.4644 v 2.25845 h 4.92883 4.92868 v -2.91156 c 0,-2.51907 0.19935,-2.93987 1.47869,-3.12157 1.26175,-0.17921 1.50806,-0.66772 1.67888,-3.33156 0.17948,-2.79685 0.36365,-3.12156 1.77012,-3.12156 1.04723,0 1.9574,-0.65622 2.73434,-1.97152 l 1.16456,-1.9715 h 7.60031 7.60031 l 0.74417,1.9715 c 0.49048,1.29964 1.19918,1.97152 2.07956,1.97152 1.12682,0 1.36674,0.4874 1.53572,3.12156 0.18346,2.85863 0.35258,3.13907 2.00748,3.32951 1.67137,0.1923 1.80729,0.42907 1.80729,3.1492 v 2.94127 l 5.09298,-0.19194 5.09312,-0.19193 0.20601,-2.13582 c 0.18104,-1.87801 0.43884,-2.1358 2.13575,-2.1358 h 1.92987 v -9.52897 c 0,-9.09087 0.061,-9.52899 1.31439,-9.52899 1.19748,0 1.31425,-0.43812 1.31425,-4.92878 v -4.92878 h 2.30018 2.30004 v 4.85214 c 0,4.29945 0.14969,4.89128 1.31439,5.19584 1.23593,0.32319 1.31425,0.89639 1.31425,9.60562 0,7.7947 0.15621,9.26192 0.98579,9.26192 0.8215,0 0.9858,-1.31434 0.9858,-7.88605 0,-10.33035 1.21067,-10.4668 1.45769,-0.16429 l 0.18529,7.72175 1.80715,0.20795 1.80729,0.20794 v 18.02855 18.02856 h -1.64299 c -1.42705,0 -1.64299,0.29064 -1.64299,2.21203 0,2.09956 -0.19551,2.28336 -3.84612,3.61445 -2.11546,0.77131 -4.0222,1.40239 -4.2373,1.40239 -0.21509,0 -0.48041,-1.55256 -0.58966,-3.45014 -0.19381,-3.36452 -0.25169,-3.45527 -2.33451,-3.65609 -2.12766,-0.20515 -2.13575,-0.19453 -2.13575,2.79298 v 2.99891 h -4.92882 -4.92868 v 4.27161 c 0,4.11827 0.0596,4.27161 1.64285,4.27161 1.50366,0 1.64284,-0.24521 1.64284,-2.89351 v -2.89351 l 11.82909,5.94864 11.82909,5.94862 v 3.92184 c 0,3.74784 -0.0653,3.90401 -1.47855,3.52052 -0.81326,-0.22071 -6.13623,-1.36418 -11.82894,-2.54104 -10.33409,-2.13643 -10.35012,-2.14256 -10.3504,-3.94698 -1.4e-4,-1.48951 -0.28902,-1.80721 -1.64313,-1.80721 -1.64214,0 -1.64285,0.003 -1.64285,6.52689 v 6.52687 l 5.09298,1.09314 c 2.80117,0.60123 7.08925,1.66897 9.52891,2.37276 l 4.43592,1.27961 v 5.22954 5.22953 h 3.28598 3.28583 v -3.61443 -3.61445 h 7.22886 7.22887 v 3.64724 3.64723 l 3.77873,-0.19709 3.77873,-0.19708 0.19863,-3.45015 0.19864,-3.45015 h 7.19453 7.19452 v 3.61445 c 0,2.77472 0.229,3.61443 0.9858,3.61443 0.82078,0 0.98565,1.30541 0.98565,7.80558 0,5.91252 0.22474,7.99196 0.92606,8.57406 0.50921,0.42266 7.68061,3.97717 15.93641,7.8989 l 15.01036,7.13044 0.18189,9.59658 c 0.0993,5.27814 0.0582,9.5966 -0.0922,9.5966 -0.50538,0 -12.53736,-3.21094 -15.86165,-4.23294 -4.73614,-1.4561 -4.92868,-1.39119 -4.92868,1.66135 v 2.68576 l -4.97933,-2.68576 c -2.7386,-1.47717 -5.25217,-2.68578 -5.58587,-2.68578 -0.33371,0 -0.60683,1.00342 -0.60683,2.22979 0,1.37581 -0.37755,2.37467 -0.98565,2.60806 -0.72544,0.27839 -0.98579,1.4249 -0.98579,4.34193 v 3.96365 h -7.22887 -7.22886 v -3.48301 c 0,-4.02762 -0.75339,-5.06022 -3.69218,-5.06022 -3.80867,0 -4.19388,0.42899 -4.19388,4.67051 v 3.87272 h -7.19751 -7.19751 l -0.19565,-4.10732 c -0.17849,-3.74482 -0.33214,-4.12664 -1.74117,-4.32608 -0.85001,-0.12031 -2.25464,-0.0407 -3.12154,0.17681 -1.2941,0.32478 -1.57616,0.81416 -1.57616,2.73474 0,2.14141 0.91684,3.27003 10.8433,13.34946 l 10.84344,11.01029 v 9.38703 9.38702 l -1.47869,-0.33783 c -0.81327,-0.18583 -6.61168,-2.44058 -12.8854,-5.01059 -6.27372,-2.57 -12.11427,-4.85032 -12.97918,-5.06737 l -1.57233,-0.39465 v -12.06329 c 0,-11.25404 -0.0851,-12.10895 -1.27112,-12.7436 -0.69905,-0.37415 -1.88206,-0.68029 -2.62864,-0.68029 -1.26246,0 -1.35752,0.38055 -1.35752,5.4267 v 5.42667 l -5.25742,4.46857 -5.25728,4.46859 v -11.53819 c 0,-11.10007 -0.0497,-11.53819 -1.31439,-11.53819 -1.2382,0 -1.31439,0.43812 -1.31439,7.55746 v 7.55748 h -2.95723 -2.95724 v 5.8087 c 0,5.32122 -0.15167,6.00864 -1.80729,8.19069 l -1.80714,2.38198 -5.35362,0.0238 c -5.31729,0.0238 -5.36738,0.009 -7.39316,-2.29902 -1.95697,-2.22878 -2.03969,-2.56169 -2.03969,-8.21461 v -5.89166 h -2.60707 -2.60722 l -0.18572,-7.39317 c -0.17324,-6.89312 -0.27482,-7.39318 -1.50025,-7.39318 -1.25679,0 -1.3222,0.49812 -1.4943,11.38095 l -0.18005,11.38095 -5.19272,-4.48065 -5.19273,-4.48066 -0.0482,-5.42166 c -0.0511,-5.60797 -0.30405,-6.03906 -2.95241,-5.02277 -0.89513,0.34349 -1.03957,2.05713 -1.03957,12.33567 v 11.93674 l -7.393156,3.05531 c -4.06618,1.68043 -9.611194,3.9389 -12.321982,5.01883 -2.710789,1.07995 -6.037768,2.43833 -7.393163,3.01864 l -2.46434,1.05513 v -9.7021 z m 45.861507,-152.80105 -0.19097,-5.42166 -1.90022,-0.21692 c -1.0793,-0.12315 -2.13958,0.16071 -2.45427,0.65718 -0.65606,1.03496 -0.76942,9.33163 -0.13621,9.96495 0.24106,0.24096 1.43584,0.43812 2.65532,0.43812 h 2.21718 z m 37.45871,0 -0.19098,-5.42166 h -2.30004 -2.30004 l -0.19097,5.42166 -0.19083,5.42167 h 2.68184 2.68185 z"
     style="fill:#000000;stroke-width:0.65717089" />
  <path
     id="ship_07"
     d="m 560.72408,527.44523 c 0,-1.67749 0.0787,-1.92865 0.60799,-1.92865 0.39482,0 0.68563,-0.30906 0.82926,-0.88119 0.12199,-0.48467 0.68787,-1.53337 1.25833,-2.33045 0.57047,-0.79709 1.13306,-1.70238 1.25007,-2.01175 0.11674,-0.3094 0.50672,-0.56253 0.86586,-0.56253 0.83241,0 0.85353,-0.65063 0.0276,-0.86649 -0.42066,-0.1101 -0.65703,-0.49411 -0.72314,-1.17532 l -0.0984,-1.01187 -2.81271,-0.0928 -2.81258,-0.0928 v -2.71972 -2.71975 h 1.30424 1.30424 l -0.0984,-1.36611 c -0.0958,-1.32605 -0.13419,-1.36904 -1.30424,-1.46588 -1.13542,-0.0939 -1.20546,-0.16283 -1.20546,-1.18599 0,-1.02321 0.0696,-1.09207 1.20546,-1.186 l 1.20534,-0.0998 v -2.89297 -2.89296 l -1.20534,-0.0998 -1.20546,-0.0997 v -2.71285 -2.71283 h 1.28574 1.28574 v -3.19799 -3.198 l -2.08379,-0.99456 c -3.13146,-1.49448 -4.13085,-3.52252 -4.07563,-8.2701 0.0315,-2.66658 1.33873,-8.61451 2.51653,-11.44589 l 0.77929,-1.87346 -1.11496,-1.2341 c -0.61323,-0.67877 -1.34661,-1.58773 -1.62981,-2.01992 -0.58056,-0.88605 -1.06656,-0.0576 5.88751,-10.03541 0.73928,-1.06076 2.04889,-2.95805 2.91031,-4.21624 l 1.56631,-2.28758 -2.41946,-2.03482 -2.41946,-2.03481 -0.97015,1.10801 c -0.99401,1.13527 -6.71388,7.33349 -9.87551,10.70156 l -1.7678,1.88322 -1.89687,-0.13722 c -2.51548,-0.18195 -3.4064,-1.11302 -3.40876,-3.56257 v -1.66966 l 6.67152,-6.47623 6.67152,-6.47627 -1.15222,-1.2383 c -0.63382,-0.68108 -1.69984,-1.92541 -2.36921,-2.76518 -0.66924,-0.83975 -1.39829,-1.52684 -1.6201,-1.52684 -0.22169,0 -1.46992,0.77133 -2.77389,1.71406 -1.30385,0.94275 -4.57867,3.27427 -7.27728,5.18119 -2.69859,1.9069 -4.9857,3.59518 -5.0825,3.7517 -0.0971,0.15652 -0.65074,-0.0775 -1.23105,-0.52028 -0.58043,-0.44269 -1.14801,-0.8049 -1.2612,-0.8049 -0.11281,0 -0.94156,0.45267 -1.84074,1.0059 -1.07613,0.66216 -1.74327,0.89738 -1.95222,0.68841 -0.20896,-0.20899 0.2382,-0.67398 1.30856,-1.36082 0.8942,-0.57386 1.62588,-1.15053 1.62588,-1.2815 0,-0.13091 -0.29907,-0.50878 -0.66465,-0.83959 -0.65415,-0.59199 -0.70466,-0.57991 -3.19009,0.76248 -1.65093,0.89176 -2.60061,1.24231 -2.74254,1.01246 -0.2609,-0.422 -0.46592,-0.26036 2.17744,-1.71653 2.19319,-1.20813 2.55576,-1.729 1.69868,-2.44032 -0.38013,-0.31552 -0.81458,-0.20487 -2.25209,0.57373 l -1.78118,0.96467 -1.13634,-1.93897 c -0.62502,-1.06646 -1.09423,-1.96313 -1.04268,-1.99258 0.73574,-0.42038 2.8261,-1.82916 2.8261,-1.90464 0,-0.0553 -0.55854,-1.39135 -1.24128,-2.96876 -1.34149,-3.09984 -2.29458,-6.47252 -2.29458,-8.11995 0,-0.7876 0.17891,-1.10014 0.75541,-1.3193 0.77037,-0.2929 15.0227,-6.91892 16.03232,-7.45354 0.51944,-0.27509 0.51143,-0.40138 -0.12592,-1.97417 -0.37424,-0.92418 -1.29074,-3.70538 -2.03671,-6.18047 -0.74597,-2.47511 -1.48513,-4.48406 -1.64253,-4.46437 -0.60037,0.0752 -9.83249,1.54785 -14.83472,2.36639 l -5.2268,0.85529 -0.29854,-1.14658 c -0.16423,-0.63062 -0.34341,-1.58053 -0.39837,-2.1109 -0.0944,-0.90585 -0.19243,-0.97027 -1.62666,-1.0623 -1.83811,-0.11792 -2.05468,-0.70563 -0.26011,-0.70563 1.46308,0 1.62902,-0.16224 1.39841,-1.36795 -0.16566,-0.86701 -0.20922,-0.88213 -2.54183,-0.88213 -1.89544,0 -2.37343,-0.0971 -2.37343,-0.48216 0,-0.3831 0.46671,-0.48217 2.27151,-0.48217 h 2.27136 l -0.1023,-0.88396 c -0.0944,-0.82447 -0.21525,-0.8905 -1.78931,-0.98112 l -1.68753,-0.0972 v -2.23328 -2.23328 h 1.26673 c 1.46308,0 1.62889,-0.16224 1.39842,-1.36797 l -0.16856,-0.88213 h -3.01629 c -3.92006,0 -3.95561,-0.58956 -0.0432,-0.71117 l 2.97339,-0.0925 v -1.12505 -1.12502 l -4.74133,-0.089 c -3.88122,-0.0728 -4.74119,-0.1733 -4.74119,-0.55393 0,-0.38064 0.85997,-0.48111 4.74119,-0.55392 3.96074,-0.0743 4.74133,-0.16836 4.74133,-0.57113 0,-0.37903 -0.53281,-0.50224 -2.4912,-0.57604 l -2.49109,-0.094 v -2.22304 -2.22305 l 2.48636,-0.094 2.48636,-0.0939 0.54751,-4.33947 c 0.30117,-2.38669 0.55643,-4.52025 0.56731,-4.74122 0.0145,-0.30326 -1.084,-0.40182 -4.48042,-0.40182 -3.78588,0 -4.5001,-0.0766 -4.5001,-0.48216 0,-0.40623 0.728,-0.48216 4.62341,-0.48216 4.47609,0 4.62917,-0.0224 4.80598,-0.69866 0.28478,-1.08863 0.0131,-1.22998 -2.37669,-1.22998 -1.76898,0 -2.2311,-0.0998 -2.2311,-0.48216 0,-0.38797 0.49688,-0.48216 2.54328,-0.48216 h 2.54316 l 0.21736,-1.28577 c 0.20738,-1.22791 0.27007,-1.2855 1.39435,-1.27991 0.64746,0.002 2.91292,0.28988 5.03437,0.63704 5.31611,0.86988 5.03187,0.9129 4.77805,-0.72324 -0.41542,-2.67885 -0.14822,-2.51579 -5.93276,-3.62042 -4.71247,-0.89992 -5.28464,-1.07853 -5.37292,-1.67737 -0.0852,-0.57953 -0.542,-0.7543 -3.37517,-1.292 -3.0988,-0.58813 -3.27156,-0.66264 -3.18891,-1.37578 0.0485,-0.4147 0.12067,-0.78196 0.16068,-0.81615 0.0407,-0.0342 1.51844,0.1971 3.28453,0.514 3.33989,0.59926 3.69983,0.58086 3.69983,-0.18907 0,-0.5736 -0.24319,-0.58313 3.82772,0.14972 7.93549,1.42853 7.16603,1.5001 8.31759,-0.77364 0.35823,-0.70716 1.24364,-1.92458 1.96757,-2.70536 0.72394,-0.78079 1.31631,-1.52448 1.31631,-1.65267 0,-0.12815 -0.6148,-0.47815 -1.36615,-0.77773 -0.75135,-0.29958 -2.64756,-1.13916 -4.21376,-1.86573 l -2.84773,-1.32107 0.19754,-1.44058 c 0.33279,-2.42809 2.40858,-8.08062 4.09702,-11.1564 1.7518,-3.19117 5.57152,-7.63251 7.42077,-8.62838 l 1.11942,-0.60286 7.46615,5.21135 c 4.10646,2.86625 7.64915,5.28155 7.87266,5.36734 0.33737,0.12946 4.04074,-3.94075 4.04074,-4.44103 0,-0.12671 -5.07043,-4.89287 -12.26047,-11.52474 -1.10394,-1.01818 -1.2401,-1.31104 -1.2401,-2.66786 0,-1.69881 0.65257,-3.23137 1.58941,-3.73275 0.34012,-0.18203 1.24272,-0.33711 2.00574,-0.3446 l 1.38714,-0.0137 6.61498,6.81673 6.61499,6.81672 2.70685,-2.33368 c 1.48867,-1.2835 2.75644,-2.46861 2.81705,-2.63356 0.0957,-0.26199 -2.31439,-3.95473 -5.95427,-9.12106 -2.86479,-4.06611 -4.60281,-6.65978 -4.60281,-6.86889 0,-0.1254 0.94062,-1.25869 2.09021,-2.51828 3.89212,-4.26448 8.84857,-7.12543 15.50501,-8.94976 2.2269,-0.61034 4.10121,-1.05747 4.16496,-0.99366 0.24201,0.24191 2.58631,5.25285 3.14117,6.71404 0.31887,0.83976 0.69035,1.52686 0.82546,1.52686 0.13511,0 0.7301,-0.4778 1.32247,-1.06177 0.59224,-0.58397 1.41796,-1.29567 1.83496,-1.58154 l 0.75804,-0.51979 -1.13174,-2.99898 c -2.5513,-6.76042 -2.68706,-7.27235 -2.05166,-7.73698 0.53741,-0.393 0.50133,-0.59993 -0.6228,-3.57313 -0.99245,-2.62483 -1.11653,-3.20529 -0.73745,-3.44903 0.86416,-0.5555 1.3798,-0.12724 1.96915,1.63512 1.40051,4.18891 1.57563,4.5336 2.25222,4.4342 0.64522,-0.0948 1.04097,0.79424 3.89159,8.74451 l 0.40349,1.12505 2.71997,0.19045 c 1.49602,0.10479 3.06574,0.30175 3.48824,0.43777 l 0.76842,0.24731 -0.22549,-2.36641 c -0.12461,-1.30152 -0.4368,-3.79756 -0.69521,-5.54675 -0.25841,-1.7492 -0.41451,-3.23568 -0.34682,-3.30332 0.0682,-0.0676 1.62587,-0.4595 3.4628,-0.87079 l 3.33976,-0.7478 0.0958,-1.97588 c 0.0708,-1.46927 0.21538,-1.97589 0.56259,-1.97589 0.35626,0 0.46684,0.45675 0.46684,1.92865 0,1.84291 0.0355,1.92864 0.80356,1.92864 0.79411,0 0.80356,-0.0322 0.80356,-2.73224 v -2.73225 h 2.4108 2.4108 v 2.45729 2.45728 l 2.16971,-0.20492 c 1.1934,-0.11269 3.21843,-0.20594 4.50023,-0.2072 l 2.3304,-0.002 v -4.52695 c 0,-3.47848 0.0932,-4.49604 0.40178,-4.39345 0.29054,0.0965 0.42657,1.39552 0.49111,4.68768 l 0.0892,4.55417 h 1.11628 1.11626 v -3.05369 c 0,-2.50009 0.0879,-3.0537 0.48206,-3.0537 0.39444,0 0.48219,0.54978 0.48219,3.0193 0,2.45668 0.0944,3.05566 0.50842,3.21442 1.09909,0.42176 1.42019,0.21149 1.42019,-0.92994 v -1.12505 h 2.4108 2.41081 v 1.46784 c 0,1.41164 0.0341,1.46393 0.88397,1.36612 0.84724,-0.0975 0.88802,-0.18536 0.97971,-2.11072 0.12724,-2.67733 0.65403,-2.56794 0.77352,0.16072 l 0.0944,2.16973 2.96238,0.63046 c 2.67328,0.56895 2.94756,0.69442 2.81049,1.28578 -0.20175,0.8704 -1.43174,9.53456 -1.43267,10.09226 0,0.31933 0.23677,0.37324 0.88319,0.20066 0.48625,-0.12985 2.10124,-0.32629 3.58898,-0.43664 l 2.70502,-0.20066 1.25624,-3.53584 c 0.69088,-1.94472 1.48249,-4.19906 1.75914,-5.00963 0.42512,-1.24549 0.61362,-1.45263 1.21714,-1.33727 0.6451,0.12331 0.81943,-0.16908 1.80387,-3.02491 1.07731,-3.12539 1.5229,-3.66604 2.50184,-3.03623 0.3678,0.23661 0.23059,0.84884 -0.76828,3.4265 -1.13227,2.92242 -1.17765,3.16641 -0.65966,3.54521 0.64891,0.4745 0.70689,0.23014 -1.51201,6.37195 l -1.61551,4.47146 0.92882,0.6627 c 0.51092,0.36449 1.31225,1.06448 1.78105,1.55555 0.46868,0.49107 0.94391,0.89285 1.05606,0.89285 0.11145,0 0.47393,-0.62981 0.80382,-1.39958 0.33003,-0.76977 1.19734,-2.65117 1.92744,-4.18089 l 1.32746,-2.78133 1.35592,0.20699 c 4.8199,0.73578 9.67928,2.89451 14.05281,6.24288 2.20787,1.69024 2.93103,2.38164 5.55525,5.31063 l 0.88501,0.98789 -5.33974,7.50257 c -2.93693,4.12642 -5.40689,7.67738 -5.48887,7.89103 -0.0813,0.21365 0.9081,1.26771 2.20001,2.34235 l 2.34915,1.9539 0.96425,-0.94491 c 0.53045,-0.5197 3.35103,-3.53462 6.26816,-6.6998 5.83937,-6.33614 6.40222,-6.70258 8.77289,-5.71205 1.3592,0.56792 1.7274,1.17486 2.01138,3.31636 l 0.21382,1.61107 -4.45446,4.3255 c -2.44977,2.37901 -5.43064,5.24587 -6.62403,6.37078 -1.19328,1.1249 -2.16972,2.17561 -2.16972,2.33491 0,0.15928 1.03416,1.51769 2.29813,3.01867 2.51312,2.98431 2.46367,2.96952 4.60399,1.37895 1.35028,-1.00351 5.271,-3.74701 10.42749,-7.29667 l 3.02535,-2.0827 1.12216,0.6043 c 1.64897,0.88802 5.11871,4.86237 7.05651,8.08279 1.65369,2.74817 3.96506,8.93384 4.43386,11.8661 l 0.20411,1.27646 -2.52282,1.14689 c -1.38753,0.6308 -3.28218,1.4708 -4.21035,1.8667 -0.92804,0.39588 -1.68752,0.82256 -1.68752,0.94816 0,0.12566 0.59237,0.8672 1.3163,1.64799 0.72394,0.78077 1.60948,1.99818 1.96758,2.70536 1.15168,2.27374 0.3821,2.20216 8.31759,0.77364 4.07091,-0.73285 3.82771,-0.72333 3.82771,-0.14973 0,0.76994 0.36007,0.78833 3.69983,0.18908 1.7661,-0.3169 3.24413,-0.5482 3.28454,-0.514 0.0407,0.0342 0.1128,0.40145 0.16082,0.81614 0.0827,0.71315 -0.0906,0.78764 -3.18905,1.3758 -2.83304,0.53769 -3.28965,0.71247 -3.37517,1.292 -0.0879,0.59881 -0.66045,0.77745 -5.37292,1.67736 -5.79477,1.10659 -5.51603,0.93464 -5.93972,3.66418 l -0.21893,1.40989 1.21623,-0.17514 c 0.66884,-0.0963 2.95661,-0.43286 5.08382,-0.74788 2.12734,-0.31502 4.09583,-0.48522 4.3747,-0.37824 0.34656,0.13299 0.68786,1.14386 1.07902,3.19529 0.31469,1.65041 0.71437,3.18156 0.88816,3.40256 0.19808,0.25186 1.14106,0.40182 2.52676,0.40182 1.25951,0 2.21077,0.13829 2.21077,0.32142 0,0.18293 -0.94654,0.32144 -2.1966,0.32144 -1.2081,0 -2.27215,0.0757 -2.36476,0.16829 -0.0932,0.0926 -0.0997,0.52649 -0.0157,0.96431 0.13944,0.72967 0.29645,0.79605 1.88258,0.79605 h 1.73054 v 2.25009 2.25007 h -1.46689 c -1.46125,0 -1.46649,0.003 -1.36615,1.04468 l 0.10106,1.0447 3.29477,0.0916 c 1.81213,0.0504 3.29476,0.22614 3.29476,0.39056 0,0.16442 -1.48263,0.34018 -3.29476,0.39056 l -3.29477,0.0916 -0.0997,1.2054 -0.0997,1.2054 h 5.16238 c 4.37458,0 5.16252,0.0736 5.16252,0.48216 0,0.4085 -0.78572,0.48217 -5.14311,0.48217 h -5.14297 v 2.04086 c 0,1.12248 -0.0932,3.14756 -0.20791,4.50018 l -0.2079,2.45929 h 3.10089 3.10077 v 2.25008 2.25009 h -3.34068 c -2.74975,0 -3.37531,0.09 -3.53586,0.50845 -0.49649,1.29377 -0.28491,1.4202 2.37643,1.4202 2.07147,0 2.57149,0.0938 2.57149,0.48216 0,0.39025 -0.5138,0.48215 -2.69518,0.48215 h -2.69532 l -0.38065,2.60311 c -0.20936,1.43169 -0.44782,2.77829 -0.53007,2.99243 -0.11281,0.29374 -1.42911,0.17962 -5.36191,-0.46476 -8.54254,-1.39973 -14.51348,-2.32658 -14.85478,-2.30587 -0.17642,0.0102 -0.9834,2.16394 -1.79351,4.785 -0.81011,2.62106 -1.71363,5.32337 -2.00771,6.0051 -0.29423,0.68177 -0.47682,1.33345 -0.40598,1.44823 0.0708,0.11478 3.99116,2.01597 8.71136,4.22493 l 8.58244,4.01628 -0.19991,1.70269 c -0.19636,1.67332 -0.18312,1.7085 0.76906,2.04046 0.53282,0.18574 0.96883,0.41724 0.96883,0.51439 0,0.17389 -1.33742,4.0123 -1.46072,4.19231 -0.0355,0.0507 -0.45399,-0.0857 -0.93146,-0.30316 -0.71659,-0.32646 -0.91951,-0.31453 -1.16165,0.0683 -0.54869,0.86708 -0.30563,1.31831 0.98235,1.82426 0.70714,0.2778 1.28574,0.70011 1.28574,0.93848 0,0.55931 -0.29488,0.54601 -1.79587,-0.0812 -1.19078,-0.49755 -1.25059,-0.49106 -1.80715,0.19634 -0.74703,0.92254 -0.72683,1.3032 0.0801,1.51429 0.96843,0.25326 0.56692,0.89329 -0.56037,0.89329 -0.83018,0 -1.28246,0.38134 -3.06352,2.58292 -2.26034,2.79407 -5.87556,6.12785 -6.15496,5.67573 -0.0944,-0.15373 -1.95065,-1.52829 -4.12351,-3.05453 -2.17299,-1.52623 -5.10834,-3.61084 -6.52303,-4.63244 -3.26106,-2.35482 -4.23659,-2.98248 -4.63521,-2.98248 -0.34944,0 -3.88492,4.30681 -3.87796,4.7241 0,0.14202 1.32942,1.48773 2.94887,2.99049 8.65024,8.02623 10.08828,9.44051 10.33882,10.1685 0.4023,1.16906 -0.0131,2.80229 -0.92581,3.66218 -0.5988,0.56246 -1.27617,0.78869 -2.662,0.88891 l -1.85897,0.13448 -6.36365,-6.60885 -6.36379,-6.60881 -2.87004,2.46667 c -1.57839,1.35667 -2.80287,2.6415 -2.72089,2.85516 0.0813,0.21364 2.14518,3.18337 4.58497,6.59939 2.43966,3.41601 4.82397,6.78268 5.29816,7.48145 l 0.86231,1.27052 -1.34149,1.56757 c -0.73784,0.86218 -1.47319,1.75364 -1.63414,1.98108 -0.19006,0.26869 -0.0131,1.13215 0.51695,2.46567 1.65133,4.18641 2.33997,7.57574 2.34365,11.5347 0,3.46178 -0.0551,3.80097 -0.90771,5.34021 -1.02419,1.84766 -2.36201,2.75794 -5.07017,3.4499 l -1.73318,0.44287 -0.0918,3.09808 -0.0918,3.09808 h 1.45809 1.45811 v 2.71377 2.71375 l -1.36614,0.0988 -1.36603,0.0989 -0.0944,2.70472 c -0.10366,2.98555 0.0302,3.22875 1.78183,3.23701 0.97539,0.003 1.04466,0.0783 1.04466,1.11148 0,1.07205 -0.0432,1.10965 -1.36616,1.20541 -1.363,0.0987 -1.36602,0.10174 -1.36602,1.38459 0,1.28286 0,1.28599 1.36602,1.38463 l 1.36616,0.0989 v 2.70213 2.7021 l -3.13396,0.092 -3.13408,0.0919 -0.0983,1.01187 c -0.0668,0.68122 -0.30261,1.06529 -0.72328,1.17532 -0.80382,0.21018 -0.81417,0.86649 -0.0145,0.86649 0.35154,0 0.93184,0.4994 1.36615,1.17538 1.81673,2.82839 2.19122,3.51852 2.19621,4.04803 0,0.38431 0.25986,0.56252 0.80881,0.56252 0.76788,0 0.80368,0.0857 0.80368,1.92865 v 1.92863 h -9.16115 -9.16103 v -1.92863 c 0,-1.67802 0.0787,-1.92865 0.60851,-1.92865 0.33475,0 0.70543,-0.25256 0.82389,-0.56123 0.11806,-0.30872 0.821,-1.60562 1.5612,-2.88208 1.03166,-1.779 1.51477,-2.32339 2.0691,-2.33173 0.88712,-0.0136 0.95179,-0.53792 0.0997,-0.80839 -0.41253,-0.13091 -0.65729,-0.54626 -0.72327,-1.22708 l -0.0997,-1.0291 h -5.62516 -5.62516 l -0.10886,0.96433 c -0.0591,0.53037 -0.31259,1.07999 -0.56247,1.22137 -0.63054,0.35679 -0.56849,0.86436 0.10762,0.88586 0.59985,0.019 2.74896,3.09988 3.33478,4.78042 0.22167,0.63575 0.56219,0.98763 0.95571,0.98763 0.53309,0 0.61152,0.24738 0.61152,1.92865 v 1.92863 h -9.00034 -9.00034 v -1.92863 c 0,-1.71436 0.0721,-1.92865 0.64287,-1.92865 0.35365,0 0.64288,-0.18537 0.64288,-0.41195 0,-0.22658 0.66438,-1.52841 1.47647,-2.89297 1.01762,-1.70997 1.66693,-2.48101 2.08943,-2.48101 0.80172,0 0.79254,-0.65608 -0.0131,-0.86649 -0.4208,-0.1101 -0.65704,-0.4941 -0.72328,-1.17532 l -0.0984,-1.01187 -2.33053,-0.0944 -2.3304,-0.0944 v -2.71816 -2.71818 h 1.30424 1.30424 l -0.0984,-1.3661 c -0.0958,-1.32607 -0.13419,-1.36906 -1.30424,-1.4659 -1.13543,-0.0939 -1.20547,-0.16282 -1.20547,-1.186 0,-1.02319 0.0696,-1.09204 1.20547,-1.18599 l 1.20533,-0.0998 v -2.89296 -2.89297 l -1.20533,-0.0998 -1.20547,-0.0997 v -2.71285 -2.71285 h 1.28574 1.28575 v -3.37511 c 0,-2.62045 -0.0971,-3.37513 -0.43418,-3.37513 -0.23886,0 -1.11444,-0.36162 -1.94566,-0.8036 -0.83137,-0.44199 -1.64844,-0.80361 -1.81582,-0.80361 -0.18061,0 -0.30444,2.41801 -0.30444,5.94665 0,3.75016 -0.11937,5.94666 -0.32151,5.94666 -0.20345,0 -0.32137,-2.34385 -0.32137,-6.38863 0,-7.62001 -0.1075,-8.39764 -1.16519,-8.39764 h -0.76342 v 5.46449 c 0,4.60324 -0.0747,5.46451 -0.47446,5.46451 -0.39574,0 -0.489,-0.88716 -0.56245,-5.34692 l -0.0879,-5.34694 -3.37518,0.12356 c -1.85634,0.068 -6.08728,0.0772 -9.40212,0.021 l -6.02694,-0.10265 v 5.32608 c 0,4.51996 -0.0735,5.32604 -0.48219,5.32604 -0.40716,0 -0.48218,-0.75003 -0.48218,-4.8216 0,-2.65189 -0.0853,-4.82161 -0.18955,-4.82161 -0.10366,0 -0.46106,0.32545 -0.79294,0.72323 -0.54213,0.64979 -0.60444,1.33541 -0.61401,6.75025 -0.0131,5.13832 -0.0813,6.02702 -0.49294,6.02702 -0.40978,0 -0.48206,-0.82531 -0.48206,-5.49933 v -5.49934 l -0.72328,0.20318 c -0.39784,0.11179 -1.44643,0.39623 -2.33039,0.63222 l -1.60725,0.42908 -0.0918,3.09917 -0.0918,3.09919 h 1.45811 1.4581 v 2.71374 2.71377 l -1.36602,0.0988 -1.36615,0.0989 v 2.89296 2.89297 l 1.36615,0.0989 c 1.31868,0.0954 1.36602,0.13666 1.36602,1.18695 0,1.0503 -0.0472,1.09149 -1.36602,1.18691 -1.35959,0.0983 -1.36667,0.10547 -1.46506,1.46498 l -0.0983,1.3661 h 1.46493 1.46492 v 2.71925 2.71927 l -2.65176,0.0934 -2.6519,0.0934 -0.0983,1.01188 c -0.0656,0.68121 -0.30249,1.06528 -0.72316,1.17531 -0.86062,0.22505 -0.78834,0.86545 0.0984,0.87112 0.52337,0.003 0.96398,0.42538 1.59413,1.52685 0.47904,0.8372 1.08308,1.88384 1.3424,2.32581 0.2592,0.44199 0.54988,1.05675 0.64577,1.36612 0.0958,0.30938 0.46828,0.56252 0.82743,0.56252 0.58371,0 0.65297,0.20436 0.65297,1.92863 v 1.92865 h -9.16103 -9.16115 v -1.90627 c 0,-1.71382 0.0708,-1.91666 0.70163,-2.00902 0.43733,-0.064 0.78481,-0.41552 0.92228,-0.93321 0.12067,-0.45681 0.74583,-1.59405 1.38779,-2.52725 0.64182,-0.93318 1.16704,-1.82513 1.16704,-1.98207 0,-0.15698 0.36164,-0.28539 0.80368,-0.28539 0.95191,0 1.06826,-0.51556 0.17984,-0.7975 -0.41254,-0.13091 -0.65731,-0.54626 -0.72315,-1.22707 l -0.0997,-1.02911 h -5.6253 -5.62516 l -0.10761,0.96433 c -0.0591,0.53037 -0.31271,1.08 -0.56259,1.22137 -0.65351,0.3698 -0.55906,0.86798 0.16461,0.86798 0.63947,0 1.6184,1.3915 2.99137,4.25153 0.45359,0.94493 0.94181,1.52213 1.29179,1.52682 0.47234,0.007 0.56245,0.31659 0.56245,1.93621 v 1.92865 h -9.00034 -9.00033 z m 78.43683,-75.58338 3.8226,-3.84608 -2.67236,-5.68875 c -1.69277,-3.60362 -2.8362,-5.66983 -3.11939,-5.63711 -0.58083,0.0672 -5.81759,1.67596 -5.97828,1.83668 -0.22378,0.22369 2.17981,15.79805 2.65111,17.17919 0.28937,0.84788 1.52303,-0.0475 5.29632,-3.84393 z m -40.82835,3.75626 c 0,-0.0803 0.58634,-3.93463 1.30306,-8.5653 0.71659,-4.63068 1.18671,-8.53018 1.04465,-8.66553 -0.31101,-0.29633 -5.89,-2.01035 -6.0436,-1.85677 -0.18128,0.18124 -3.05158,6.38112 -4.19959,9.07092 l -1.08164,2.53436 0.87242,0.65796 c 1.00293,0.75645 5.02755,4.77527 6.09502,6.08626 0.59696,0.73315 2.00968,1.252 2.00968,0.7381 z m 67.9044,-16.01459 c 1.19326,-1.04853 2.16721,-2.07232 2.16419,-2.27511 0,-0.20279 -2.71524,-3.15199 -6.02707,-6.55382 l -6.02143,-6.1851 -1.68294,1.52423 -1.68293,1.52421 1.04007,1.34253 c 0.57203,0.73841 2.18663,2.98044 3.58794,4.98232 4.49708,6.42423 5.71514,7.97567 6.09055,7.7575 0.19899,-0.1157 1.33821,-1.06823 2.53162,-2.11676 z m -95.92029,0.49023 c 0.56207,-0.83975 2.18505,-3.19029 3.60656,-5.22342 4.52923,-6.4777 5.12291,-7.3536 5.12291,-7.55695 0,-0.23845 -1.9681,-1.92554 -2.24631,-1.92554 -0.16987,0 -2.47403,2.43663 -10.146,10.72936 l -1.897,2.05046 1.92127,1.71867 c 1.05671,0.94528 2.07775,1.72218 2.26887,1.72648 0.19125,0.003 0.80763,-0.6793 1.3697,-1.51906 z m 31.22539,-6.42882 c 0,-0.59002 0.18457,-0.72323 0.98012,-0.72323 h 0.97526 l -0.0918,-3.40783 -0.0906,-3.40784 -3.2907,-1.23503 c -9.20458,-3.45458 -16.9904,-9.64426 -22.44713,-17.84537 -1.9609,-2.94698 -4.37733,-7.69548 -4.99987,-9.82494 -0.22589,-0.77296 -0.53729,-1.49299 -0.69181,-1.6001 -0.25211,-0.17469 -8.54097,1.80653 -8.84975,2.11531 -0.22982,0.22987 0.94719,3.38318 1.26279,3.38318 0.16974,0 0.89525,-0.29938 1.61262,-0.6653 0.71725,-0.36593 1.33795,-0.61906 1.37928,-0.56254 0.042,0.0566 0.4389,0.75371 0.88343,1.54928 0.44454,0.79557 1.9378,3.39923 3.31851,5.78592 1.38059,2.38671 2.85771,4.94673 3.28231,5.68898 l 0.77208,1.34951 -1.30398,0.86293 c -0.71711,0.4746 -1.30398,0.99809 -1.30398,1.16327 0,0.38701 2.01086,2.8152 2.33762,2.82283 0.13654,0.002 0.87018,-0.56738 1.63006,-1.26791 l 1.38189,-1.27372 1.65696,1.67786 1.65709,1.67785 -1.31631,1.5399 c -0.72393,0.84695 -1.26291,1.57839 -1.19772,1.6254 0.0656,0.047 0.53676,0.40247 1.04793,0.78983 l 0.92935,0.70428 0.94667,-1.28736 c 0.52075,-0.70806 1.00359,-1.28737 1.07297,-1.28737 0.0696,0 2.55208,1.39945 5.51708,3.10989 2.96488,1.71043 6.15025,3.52942 7.07842,4.04215 0.92804,0.51276 1.68753,0.9995 1.68753,1.08165 0,0.0821 -0.28937,0.71644 -0.64288,1.40952 -0.35363,0.6931 -0.64287,1.40621 -0.64287,1.58473 0,0.17851 1.121,0.6681 2.49108,1.08794 2.62632,0.80475 2.95897,0.7304 2.96841,-0.66367 z m 32.01598,0.83443 c 1.48355,-0.43104 2.38313,-0.86056 2.38313,-1.13784 0,-0.245 -0.28412,-1.00233 -0.63134,-1.68297 l -0.63132,-1.23756 4.7004,-2.6873 c 5.31127,-3.03648 5.77902,-3.30605 7.87017,-4.53556 0.8269,-0.48619 1.64673,-0.88398 1.82183,-0.88398 0.175,0 0.6312,0.50627 1.01358,1.12506 0.38249,0.61877 0.93669,1.11901 1.2317,1.11167 0.295,-0.008 1.10642,-0.51675 1.80321,-1.13193 l 1.26685,-1.11854 -1.50795,-1.53098 -1.50795,-1.53097 1.73501,-1.71348 1.73501,-1.71346 1.48959,1.37303 1.48958,1.37303 0.95415,-0.9141 c 0.52468,-0.50274 0.95099,-1.06784 0.94718,-1.25574 0,-0.18792 -0.58646,-0.75182 -1.29506,-1.25312 l -1.2881,-0.91146 0.91742,-1.66008 c 1.13882,-2.06086 7.17495,-12.55136 7.30271,-12.69184 0.0512,-0.0566 0.68039,0.19661 1.39764,0.56254 0.71724,0.36592 1.42596,0.6653 1.57484,0.6653 0.27848,0 1.53183,-3.17151 1.31972,-3.33923 -0.1839,-0.14538 -4.04271,-1.20004 -6.64922,-1.81729 l -2.35217,-0.55705 -0.29973,0.78834 c -0.16488,0.4336 -0.29972,0.91338 -0.29972,1.0662 0,0.5827 -2.84315,6.36883 -4.18635,8.51992 -5.48441,8.78231 -13.68093,15.51484 -23.29686,19.13562 l -3.21436,1.21035 -0.0918,3.28357 c -0.0708,2.53102 0.0131,3.3673 0.36335,3.64897 0.2504,0.20096 0.54764,0.76315 0.66057,1.24934 0.247,1.06289 0.27101,1.06427 3.27457,0.19154 z m -66.74864,-6.97004 c 4.06868,-3.91257 6.04858,-6.03054 5.88843,-6.2989 -0.13263,-0.2224 -0.77024,-1.01568 -1.41693,-1.76286 l -1.17569,-1.35849 -1.71729,1.2101 c -0.94444,0.66555 -2.58514,1.83529 -3.64579,2.59948 -1.06078,0.76416 -3.49152,2.48644 -5.40165,3.82724 -1.92139,1.34883 -3.42922,2.62767 -3.37504,2.86267 0.16698,0.72558 3.93358,4.97894 4.33469,4.89487 0.2087,-0.0438 3.1379,-2.73211 6.50927,-5.97411 z m 108.33581,3.14561 c 0.89039,-1.06994 1.61892,-2.05812 1.61892,-2.19597 0,-0.21037 -10.86284,-8.0723 -13.54596,-9.80374 -0.84199,-0.54344 -0.85708,-0.53805 -1.84992,0.6665 -0.55052,0.66791 -0.95767,1.34445 -0.90468,1.50345 0.17314,0.51913 12.27176,11.74835 12.67262,11.7619 0.2146,0.008 1.11862,-0.8622 2.00902,-1.93214 z M 555.74179,405.19809 c 5.87912,-2.7526 5.55223,-2.25156 4.23409,-6.48981 -0.76827,-2.47002 -0.83596,-2.56826 -1.71336,-2.48874 -0.85013,0.077 -14.12469,2.20226 -15.81877,2.53254 -0.70019,0.13649 -0.74466,0.25779 -0.55039,1.49884 0.23794,1.52039 2.67759,8.86303 3.13592,9.43855 0.21786,0.27357 1.00359,0.0446 2.93352,-0.85491 1.4497,-0.67571 4.95027,-2.31211 7.77899,-3.63647 z m 133.68683,-0.44283 c 1.69932,-5.24045 1.772,-5.81844 0.75568,-6.01113 -1.87168,-0.35484 -14.97455,-2.44785 -15.79267,-2.52268 -0.89984,-0.0822 -0.9523,-0.002 -1.84584,2.80827 -0.5058,1.59113 -0.88475,3.08928 -0.84187,3.32925 0.0432,0.23996 3.54938,2.07011 7.79238,4.06703 5.81996,2.73902 7.80538,3.53975 8.08398,3.26029 0.20318,-0.20376 1.03494,-2.42272 1.84834,-4.93103 z m -120.8766,-12.67834 2.20263,-0.64793 -0.2445,-1.50341 c -0.13446,-0.82687 -0.33004,-2.58827 -0.43471,-3.91421 l -0.19033,-2.41081 -2.6519,-0.0934 -2.6519,-0.0934 v 4.86943 4.86946 l 0.88398,-0.21396 c 0.48624,-0.11766 1.87522,-0.50553 3.08673,-0.86187 z m 99.46152,-3.93535 0.0892,-4.72801 -2.66056,0.0935 -2.66055,0.0935 -0.19741,2.25009 c -0.10886,1.23754 -0.30669,3.00004 -0.44035,3.91665 l -0.24318,1.66659 2.36909,0.69195 c 1.30305,0.38059 2.51377,0.73961 2.69059,0.79781 0.84513,0.27828 0.96856,-0.28216 1.05331,-4.78208 z m -98.14443,-9.28226 c 0.0682,-0.22099 0.20345,-1.70363 0.29986,-3.29477 l 0.1755,-2.89296 -2.88158,-1.35339 -2.88158,-1.35341 v 4.64816 4.64817 h 2.5816 c 1.78471,0 2.62015,-0.12409 2.7062,-0.4018 z m 98.21605,-3.45547 c 0,-2.4789 -0.12068,-3.8573 -0.33737,-3.8573 -0.18548,0 -0.75686,0.21695 -1.26975,0.48212 -0.51275,0.26515 -1.66509,0.63927 -2.56072,0.83135 l -1.62851,0.34924 0.19244,2.62413 c 0.10626,1.44328 0.24844,2.80494 0.31664,3.02593 0.0853,0.27779 0.92096,0.4018 2.70568,0.4018 h 2.58159 z m -108.64682,-10.1702 c 0,-0.28984 -0.4162,-1.20327 -0.92476,-2.02984 -0.50855,-0.82658 -1.25426,-2.47834 -1.65696,-3.6706 -0.63684,-1.88551 -0.89144,-2.24899 -1.95537,-2.79177 -0.67278,-0.34322 -1.28156,-0.62403 -1.35278,-0.62403 -0.0708,0 -0.20227,0.90405 -0.29133,2.009 -0.0892,1.10494 -0.5567,2.99551 -1.03941,4.20124 -0.48271,1.20573 -0.80158,2.26822 -0.70871,2.3611 0.17485,0.17478 5.48612,0.94946 7.04536,1.02759 0.6228,0.0312 0.88396,-0.11134 0.88396,-0.48269 z m 120.97105,-0.32548 c 0.67501,-0.12986 0.86468,-0.31416 0.72747,-0.70633 -0.1023,-0.29182 -0.58527,-1.72345 -1.07377,-3.18141 -0.48848,-1.45796 -0.97788,-2.6513 -1.08753,-2.65188 -0.10886,-7.2e-4 -0.38473,0.6616 -0.61153,1.47153 -0.22679,0.80992 -0.96884,2.33361 -1.64895,3.38597 -0.68026,1.05235 -1.2367,1.99503 -1.2367,2.09482 0,0.18329 3.24611,-0.0884 4.93101,-0.4127 z m -39.15984,-24.461 c 0.30838,-0.48618 0.9224,-1.27311 1.36445,-1.74874 0.44205,-0.47562 0.72643,-1.05421 0.63185,-1.28575 -0.0944,-0.23154 -2.05455,-1.48971 -4.35542,-2.79591 l -4.18346,-2.3749 0.68117,-1.40218 c 0.42317,-0.87101 0.56562,-1.50888 0.37607,-1.68383 -0.38525,-0.35551 -4.1605,-1.64667 -4.81465,-1.64667 -0.28608,0 -0.56902,0.40005 -0.68183,0.96433 -0.18561,0.92793 -0.25801,0.96431 -1.92062,0.96431 h -1.72779 v 3.31298 3.31299 l 2.26468,0.5435 c 2.42326,0.58159 7.26009,2.53525 9.62866,3.88923 1.81948,1.04005 2.0485,1.03592 2.73689,-0.0494 z m -43.57297,-1.67867 c 2.02581,-0.8761 4.73791,-1.84155 6.02693,-2.14544 l 2.34364,-0.55252 v -3.31636 -3.31635 h -2.22453 c -2.22166,0 -2.22481,-10e-4 -2.44124,-0.987 -0.11936,-0.54531 -0.38302,-0.92705 -0.58804,-0.85303 -0.20424,0.0737 -1.34779,0.48038 -2.54106,0.90377 -1.1934,0.42338 -2.16971,0.88534 -2.16971,1.02655 0,0.14122 0.29895,0.84275 0.66425,1.55896 0.7873,1.54303 0.95048,1.35486 -3.17408,3.65865 -1.46873,0.82039 -2.62593,1.59628 -2.57149,1.7242 0.0551,0.12789 0.7499,1.04899 1.54546,2.0468 0.79556,0.99781 1.44643,1.82106 1.44643,1.82946 0,0.008 1.65749,-0.70158 3.68344,-1.57769 z m -34.55901,-2.42662 1.58993,-1.4246 -0.78638,-0.84353 c -0.43246,-0.46393 -1.63951,-1.58508 -2.68231,-2.49146 l -1.89596,-1.64794 -1.71966,1.92147 c -0.94575,1.05681 -1.6836,2.02948 -1.63978,2.16149 0.11413,0.34451 4.83853,3.72625 5.22286,3.73872 0.17683,0.006 1.03692,-0.63062 1.9113,-1.41415 z m 111.73722,-0.83631 c 1.49366,-1.04766 1.83011,-1.43495 1.6062,-1.84828 -0.51839,-0.95641 -3.92347,-4.54091 -4.31371,-4.54091 -0.21118,0 -1.30856,0.9328 -2.43861,2.0729 l -2.05441,2.07289 1.06,0.579 c 0.58293,0.31845 1.72858,1.11212 2.54591,1.76371 0.8172,0.6516 1.53523,1.19403 1.59557,1.2054 0.0603,0.0119 0.95992,-0.57574 1.99905,-1.30471 z m -65.98299,-2.93369 c -0.0906,-2.93262 -0.10366,-2.97334 -0.89603,-2.97334 -0.79254,0 -0.80487,0.0407 -0.8959,2.97334 l -0.0932,2.97332 h 0.98838 0.98851 z m 16.71494,0 c -0.0906,-2.93262 -0.10366,-2.97334 -0.89603,-2.97334 -0.79254,0 -0.80487,0.0407 -0.89603,2.97334 l -0.0918,2.97332 h 0.98838 0.98852 z m -52.07368,-0.9888 c 1.28824,-0.20752 2.34088,-0.52197 2.33917,-0.69876 0,-0.4848 -6.53378,-9.80395 -6.86866,-9.80395 -0.43759,0 -5.04512,3.94896 -5.04512,4.32393 0,0.53961 6.21819,6.60695 6.74432,6.58057 0.26837,-0.0135 1.54218,-0.19426 2.83029,-0.40179 z m 89.60201,-2.22561 c 1.05711,-1.10495 2.5505,-2.6806 3.31864,-3.50143 l 1.39633,-1.49244 -2.20291,-1.81824 -2.20276,-1.81826 -0.72721,0.89987 c -0.39994,0.49494 -1.3752,1.8401 -2.16735,2.98925 -0.79201,1.14915 -2.16316,3.10191 -3.04698,4.33945 -0.88384,1.23754 -1.60817,2.28624 -1.60961,2.33044 0,0.0442 1.1947,0.0804 2.65846,0.0804 h 2.66107 z m -65.26575,-3.97756 c 1.41495,-0.46395 2.67407,-0.93425 2.79815,-1.04513 0.28478,-0.25473 -0.67658,-7.49231 -1.0474,-7.88515 -0.162,-0.17158 -1.07573,0.0681 -2.22335,0.58308 -1.07155,0.4809 -2.84984,1.03514 -3.95168,1.23162 -1.10184,0.1965 -2.06071,0.40133 -2.13089,0.45518 -0.2466,0.1894 3.30133,7.50391 3.63989,7.50391 0.18848,0 1.50033,-0.37958 2.91528,-0.84351 z m 41.48342,-2.90235 c 0.96804,-2.06021 1.72189,-3.77481 1.67532,-3.8102 -0.046,-0.0355 -1.02484,-0.24239 -2.17391,-0.46001 -1.14919,-0.21762 -3.02323,-0.88886 -4.16456,-1.49164 -1.14146,-0.60278 -2.16775,-0.98835 -2.28068,-0.85683 -0.2125,0.24745 -1.35828,8.15127 -1.19865,8.26844 0.23073,0.16932 5.60325,2.0195 5.96844,2.05539 0.23033,0.0227 1.19419,-1.61994 2.17404,-3.70515 z"
     style="fill:#000000;stroke-width:0.32144067" />
  <path
     id="ship_03"
     d="m 637.81171,226.15828 v -9.16652 h -2.27466 -2.27428 l -0.1696,-3.43757 -0.16959,-3.43741 -2.14426,-0.15683 -2.14445,-0.15683 -0.1564,9.72127 -0.15641,9.7211 -6.61462,-4.10894 c -3.63821,-2.26001 -7.90883,-4.90209 -9.49059,-5.87126 -3.70775,-2.27203 -13.69695,-8.46046 -22.76431,-14.10332 -3.9301,-2.44571 -10.76916,-6.7018 -15.19806,-9.45833 l -8.05261,-5.01154 -0.16017,-6.45604 c -0.0999,-3.9783 0.0547,-6.45587 0.40326,-6.45587 0.71381,0 4.98725,0.99086 12.69935,2.94455 3.32163,0.84155 10.43957,2.61439 15.81765,3.93976 5.37789,1.32538 12.23711,3.05468 15.24254,3.84316 3.00524,0.78849 7.57924,1.90598 10.16426,2.48325 2.58502,0.57727 5.10861,1.18857 5.60798,1.35825 0.8133,0.27612 0.90809,-1.10582 0.90809,-13.23492 v -13.54341 l -2.15707,-1.18539 c -2.73559,-1.50357 -13.19118,-6.46622 -13.62327,-6.46622 -0.17902,0 -0.32487,2.29171 -0.32487,5.09262 v 5.09246 h -6.61462 -6.61481 v -7.38417 -7.38417 h -2.30067 c -2.2886,0 -2.30066,-0.0167 -2.30066,-1.97472 0,-1.08596 -0.36501,-2.24267 -0.81086,-2.57034 -0.44585,-0.32767 -4.78148,-2.49342 -9.63437,-4.81267 -4.8529,-2.31941 -12.21694,-5.86059 -16.36432,-7.86934 -4.14756,-2.00875 -7.8359,-3.65246 -8.19658,-3.65246 -0.36048,0 -0.65558,0.45848 -0.65558,1.01856 0,0.90477 -0.38329,1.01856 -3.43149,1.01856 h -3.43168 l -0.16394,5.47452 -0.16395,5.47435 -2.13578,0.15683 c -2.48967,0.18302 -2.50757,-0.87941 0.18091,10.79205 0.93579,4.06138 1.78773,8.30095 1.89325,9.42129 0.10553,1.12033 0.22707,2.43803 0.27004,2.9282 0.0433,0.49018 0.46676,0.89126 0.94126,0.89126 0.69911,0 0.86267,0.82036 0.86267,4.3285 v 4.32866 h -13.80436 -13.80455 v -4.26926 c 0,-3.841 0.11495,-4.29597 1.15043,-4.53555 0.89622,-0.20755 1.1525,-0.69889 1.16041,-2.22364 0.0188,-2.25184 1.12442,-8.39589 2.83188,-15.63608 0.65144,-2.7617 1.18434,-5.22526 1.18434,-5.47452 0,-0.24926 -0.89716,-0.45314 -1.99369,-0.45314 h -1.9937 l -0.16394,-5.47452 -0.16394,-5.47452 -3.59506,-0.15183 -3.59487,-0.15182 V 108.2663 82.088264 l 3.59487,-0.151824 3.59506,-0.151825 0.16394,-5.219756 0.16394,-5.219923 h 3.35066 3.35065 l 1.61361,-4.838027 c 1.39973,-4.196693 1.78,-4.837859 2.869,-4.837859 1.07712,0 1.49659,0.668361 2.95643,4.71056 l 1.70124,4.710728 3.85039,0.150156 3.8504,0.150156 v 5.323865 5.323864 h 3.45109 3.45109 v 7.859165 c 0,7.044987 0.10364,7.886527 1.00665,8.12294 0.8493,0.222398 11.46921,1.673739 28.4388,3.886206 6.55809,0.85505 6.21626,1.02356 6.21626,-3.062851 v -3.564703 h 2.30066 2.30066 v -8.40273 -8.40273 h 1.58177 c 2.21323,-0.01668 2.72767,-0.434619 3.70058,-3.047667 0.46922,-1.260476 1.19811,-2.291714 1.62002,-2.291714 0.42173,0 1.15081,1.031238 1.62002,2.291714 0.94465,2.536969 1.50356,3.036155 3.41284,3.047667 1.28949,0 1.2942,0.03837 1.2942,8.410571 v 8.40273 h 2.30067 2.30085 v 4.710561 c 0,2.590862 0.19881,4.968492 0.43134,5.283822 0.46055,0.62482 8.63771,1.99891 9.15724,1.53893 0.4532,-0.40125 1.08975,-3.6276 2.75386,-13.957498 2.82698,-17.547064 3.23891,-19.746015 4.02961,-21.510849 0.43925,-0.980352 1.99595,-4.532376 3.45919,-7.893534 4.23481,-9.726773 4.66577,-10.43968 6.31161,-10.43968 1.6741,0 1.89439,0.339353 7.66593,11.804431 4.31395,8.569403 4.23933,8.274931 7.9043,31.227611 0.80483,5.041569 1.60909,9.593129 1.78698,10.114509 0.34786,1.01973 0.2738,1.02189 8.68915,-0.2531 l 3.59487,-0.54473 v -5.04024 -5.040233 h 2.58842 2.58841 v -8.40273 -8.40273 h 1.65507 c 1.98747,0 2.59896,-0.591615 3.55322,-3.437571 0.39912,-1.190237 1.01211,-2.164249 1.36223,-2.164249 0.35031,0 1.09974,1.154032 1.66544,2.564498 0.85344,2.12721 1.31531,2.615217 2.70958,2.86214 l 1.68069,0.297476 0.15829,8.214201 0.15829,8.2142 2.41882,0.155162 2.419,0.155161 0.1696,3.409375 c 0.0942,1.90431 0.42323,3.37434 0.74452,3.32996 0.3164,-0.0434 3.03408,-0.33618 6.03951,-0.65034 5.92738,-0.61931 23.24426,-2.993446 24.87653,-3.410546 0.90244,-0.230573 1.00664,-1.067609 1.00664,-8.091907 v -7.834806 l 3.59487,-0.151825 3.59487,-0.151824 0.16395,-5.219757 0.16394,-5.219923 h 3.33991 3.33991 l 0.62732,-1.909818 c 0.34503,-1.050257 1.05149,-3.227353 1.56989,-4.837859 0.78316,-2.433195 1.15815,-2.928209 2.21756,-2.928209 1.102,0 1.50639,0.639664 2.97886,4.710561 l 1.70388,4.710727 3.57508,0.151825 3.57509,0.151824 0.16394,5.195898 0.16394,5.196065 3.59487,0.151825 3.59487,0.151824 v 26.178035 26.17803 l -3.59487,0.15182 -3.59487,0.15183 -0.16394,5.47452 -0.16394,5.47452 h -2.0197 c -2.33836,0 -2.34269,-0.67353 0.0622,9.42112 0.73416,3.08104 1.49866,7.09137 1.69898,8.91193 0.52216,4.74843 0.78824,5.60182 1.74589,5.60182 0.68536,0 0.85175,0.84521 0.85175,4.32866 v 4.32883 H 745.93595 732.1314 v -4.32883 c 0,-3.48345 0.16583,-4.32866 0.85175,-4.32866 0.95765,0 1.22373,-0.85339 1.7459,-5.60182 0.20031,-1.82056 0.96481,-5.83089 1.69897,-8.91193 2.40544,-10.09465 2.4011,-9.42112 0.0622,-9.42112 h -2.0197 l -0.16395,-5.47452 -0.16394,-5.47452 -3.59487,-0.15183 c -3.12377,-0.1318 -3.59487,-0.28196 -3.59487,-1.14569 0,-0.5469 -0.27719,-0.9942 -0.61582,-0.9942 -0.33863,0 -4.02696,1.64238 -8.19639,3.6498 -4.16923,2.00725 -11.20408,5.38843 -15.63298,7.51347 l -8.05261,3.86385 -0.17336,2.92604 -0.17148,2.9262 h -2.55958 -2.55977 v 7.38417 7.38418 h -6.32706 -6.32688 v -5.60182 c 0,-3.65947 -0.21482,-5.60166 -0.61921,-5.60166 -0.67122,0 -12.6969,5.55327 -16.20509,7.48328 l -2.15688,1.18673 v 13.14933 c 0,7.23218 0.15075,13.28213 0.33297,13.4443 0.18279,0.16184 1.41274,-0.0167 2.73219,-0.37973 1.31946,-0.37088 6.02273,-1.61634 10.45164,-2.76771 7.74225,-2.01242 13.24206,-3.47878 31.34775,-8.35735 4.587,-1.23595 9.18928,-2.40933 10.22701,-2.6072 l 1.88685,-0.36005 -0.16205,6.52512 -0.16206,6.52511 -7.47749,5.00003 c -8.52635,5.70126 -7.34426,4.91794 -17.5432,11.62558 -4.27062,2.80875 -8.32528,5.53191 -9.00988,6.05145 -0.68479,0.51937 -1.76474,1.19074 -2.39979,1.49155 -0.63504,0.30098 -1.49847,0.84304 -1.9185,1.20475 -0.42004,0.36171 -3.86981,2.6903 -7.66612,5.17454 -3.79612,2.48442 -7.03164,4.67086 -7.18974,4.85872 -0.15829,0.18786 -1.12876,0.77464 -2.15688,1.30419 -1.02813,0.52938 -1.86952,1.14235 -1.86952,1.36208 0,0.21973 -0.25873,0.39941 -0.57512,0.39941 -0.36331,0 -0.57511,-3.5647 -0.57511,-9.67571 v -9.67589 h -2.0133 -2.0131 v 3.53551 3.5355 l -2.44445,0.15683 -2.44463,0.15683 -0.1564,9.03923 -0.15641,9.03922 h -4.30058 -4.30057 z"
     style="fill:#000000;stroke-width:0.54121757">
    <title
       id="title5727">ship_03</title>
  </path>
  <path
     id="ship_12"
     d="m 893.70745,789.59494 c -0.0156,-6.7483 -0.32034,-8.15125 -1.43808,-6.60861 -0.23524,0.32457 -0.54646,-3.6583 -0.69182,-8.85079 -0.20158,-7.20197 -0.42088,-9.4129 -0.9248,-9.32287 -0.50752,0.091 -0.66056,-1.72687 -0.66056,-7.84767 0,-4.38119 -0.1486,-8.62953 -0.33027,-9.44083 l -0.33028,-1.47521 h -34.97551 -34.97552 l -6.57425,2.16716 c -3.6159,1.19185 -9.42798,3.12457 -12.91577,4.2949 -3.4878,1.17034 -8.48173,2.82688 -11.09759,3.68132 -2.61584,0.85434 -5.44309,1.79517 -6.28267,2.09083 -0.8396,0.29555 -1.59639,0.47496 -1.68171,0.39875 -0.0851,-0.076 0.10423,-1.79249 0.42207,-3.81395 l 0.57739,-3.67533 2.42554,-1.22161 c 1.33405,-0.67193 3.97123,-2.01343 5.86049,-2.98102 24.66492,-12.63317 30.0705,-15.22005 36.04005,-17.24718 7.08656,-2.40661 12.14989,-4.10897 32.65915,-10.98059 3.05182,-1.0225 6.9159,-2.36422 8.5867,-2.98156 l 3.03781,-1.12248 v -11.21106 -11.21095 h 1.32122 1.32111 v 10.62091 c 0,11.57865 -0.0958,11.26137 3.01371,10.04051 0.81299,-0.31921 1.65282,-0.79718 1.86637,-1.06211 0.21356,-0.26484 0.39188,-6.5887 0.39643,-14.05282 l 0.012,-13.57121 h 5.54878 5.5488 v -2.75976 c 0,-1.51791 0.15531,-4.71549 0.34525,-7.10583 0.33207,-4.17802 0.3014,-4.35646 -0.79262,-4.61198 -1.13451,-0.26505 -1.13811,-0.3114 -1.13811,-15.05306 v -14.78715 l 2.24591,-0.14515 2.24602,-0.14515 0.14321,-9.32277 c 0.12079,-7.85537 0.2664,-9.32287 0.92491,-9.32287 0.67985,0 0.78148,-3.25345 0.78148,-25.0183 v -25.0182 h 1.32111 1.32109 v 24.79704 c 0,21.60632 0.10188,24.83205 0.79274,25.06873 0.6584,0.22576 0.79262,1.53793 0.79262,7.748 v 7.47632 l 2.51027,0.14387 2.51015,0.14387 0.13878,17.15427 c 0.13649,16.87572 0.12138,17.15822 -0.93068,17.40389 -1.22871,0.2871 -1.85164,1.96012 -1.36916,3.67736 l 0.3316,1.18008 h 7.65256 7.65244 v -2.36016 c 0,-2.04554 -0.14092,-2.36026 -1.05686,-2.36026 -1.03793,0 -1.05686,-0.31472 -1.05686,-17.46555 v -17.46566 h 2.37797 2.37808 v -7.55265 c 0,-6.39879 0.12104,-7.55265 0.79262,-7.55265 0.6947,0 0.79274,-3.09802 0.79274,-25.04967 v -25.04956 l 1.45329,0.14933 1.45316,0.14944 0.13686,24.90023 c 0.11864,21.69859 0.23812,24.90023 0.92479,24.90023 0.67207,0 0.78795,1.38861 0.78795,9.44084 v 9.44083 h 2.64233 2.64222 v 14.8365 14.8365 l -1.18893,0.15093 c -1.17274,0.14869 -1.18904,0.24792 -1.18904,7.2314 v 7.08068 l 5.67306,0.13392 5.67306,0.13391 0.13985,14.01278 0.13997,14.01278 2.51015,0.83228 2.51015,0.83239 v -10.8487 -10.8486 l 1.18905,-4.3e-4 h 1.18904 l -0.15447,10.26745 c -0.0851,5.64701 -0.0311,10.70719 0.11864,11.24488 0.20349,0.72888 1.58735,1.43035 5.4391,2.75698 2.84127,0.97872 7.54411,2.59929 10.45056,3.60124 5.19239,1.79014 17.39717,5.92009 30.91465,10.46142 1.59866,0.53705 4.33338,1.6605 6.07726,2.49653 6.6109,3.16953 9.5709,4.64431 11.3618,5.66114 1.0173,0.57751 6.7618,3.53124 12.7656,6.56375 6.0039,3.03251 11.1496,5.77183 11.4352,6.08729 0.2855,0.31547 0.6923,2.14596 0.9038,4.06754 0.3624,3.29274 0.3278,3.47322 -0.602,3.13314 -1.1097,-0.40592 -11.603,-3.91607 -17.6327,-5.89836 -6.0517,-1.98956 -12.5878,-4.18903 -16.2604,-5.47188 l -3.31335,-1.15738 h -35.39603 -35.396 v 9.44094 c 0,7.30087 -0.14967,9.41407 -0.66055,9.32276 -0.50741,-0.091 -0.69375,2.1041 -0.80376,9.46471 -0.12931,8.65693 -0.2223,9.51202 -0.96256,8.85079 -0.45059,-0.40249 -1.03384,-0.73187 -1.29593,-0.73187 -0.26208,0 -0.54239,3.11686 -0.6228,6.92642 l -0.14633,6.92643 -1.98165,-5.19089 c -1.75817,-4.60512 -1.98179,-5.71113 -1.98179,-9.80168 0,-4.58704 -0.012,-4.62065 -1.8496,-6.54095 l -1.84947,-1.93016 v -7.46315 -7.46305 l -2.51027,-1.63427 c -4.64664,-3.02513 -4.42302,-3.0049 -8.30018,-0.74847 l -3.45783,2.01236 v 7.65316 7.65317 l -2.10641,2.08633 -2.10641,2.08622 -0.012,5.03685 c -0.012,4.41426 -0.21019,5.55205 -1.6479,9.20479 -0.90227,2.2924 -1.84624,4.48663 -2.09778,4.87607 -0.27251,0.42197 -0.46366,-2.20088 -0.47325,-6.49054 z"
     style="fill:#000000;stroke-width:0.49945313" />
  <path
     id="ship_04"
     d="m 941.31809,241.44832 c 0,-3.52363 0.14539,-4.34772 0.76725,-4.34772 0.51286,0 0.78618,-0.55103 0.8244,-1.66229 0.10453,-3.04151 0.44017,-5.19461 1.69394,-10.8692 0.6837,-3.09452 1.31746,-6.4319 1.40833,-7.41663 0.15557,-1.68592 0.0684,-1.79948 -1.49711,-1.95045 l -1.66233,-0.16081 v -4.82671 -4.82671 h -2.80215 -2.80215 l -0.13899,-9.7888 -0.13882,-9.7888 -3.45256,-1.02872 -3.45256,-1.02871 v -9.05136 c 0,-7.98538 -0.10535,-9.14209 -0.89511,-9.8226 -0.4923,-0.42419 -4.11748,-2.49868 -8.05596,-4.60994 -3.93846,-2.11125 -9.8078,-5.29963 -13.04298,-7.08549 -5.49573,-3.03363 -6.10054,-3.24843 -9.20682,-3.2696 l -3.32468,-0.023 v 6.64932 6.64949 l 1.66234,0.16081 1.66234,0.16082 v -2.84559 -2.84558 h 4.09192 4.09192 v 12.5315 12.53149 h -4.09192 -4.09192 v -7.92812 -7.92812 h -3.83616 c -4.52655,0 -4.40948,-0.28552 -2.83988,6.92911 0.54795,2.5187 1.11142,5.26993 1.25214,6.11387 1.22979,7.37578 1.82142,11.13866 2.11105,13.42664 0.27613,2.18133 0.52288,2.68526 1.3149,2.68526 0.90481,0 0.97498,0.44175 0.97498,6.138 v 6.13784 h -16.36766 -16.36768 v -6.13784 c 0,-5.6718 0.0732,-6.138 0.96405,-6.138 0.79304,0 1.0246,-0.52166 1.30545,-2.94108 0.44821,-3.86101 2.12556,-13.50196 3.38009,-19.42762 1.51716,-7.16606 1.62935,-6.86051 -2.45277,-6.68165 l -3.45256,0.15097 -0.14129,7.80012 -0.14112,7.80029 h -4.0786 -4.07859 v -12.53149 -12.5315 h 4.06519 4.06519 l 0.15458,2.68526 c 0.14292,2.48212 0.25136,2.68543 1.43332,2.68543 h 1.27874 v -6.64948 -6.64933 l -4.21336,-0.14768 -4.21335,-0.14933 -0.13423,-18.26516 -0.1344,-18.26517 -2.17382,-0.15753 -2.17383,-0.15753 v 18.39382 18.39397 l -1.86629,3.24582 c -1.02647,1.78536 -2.46503,4.28174 -3.19681,5.54774 l -1.33052,2.30177 -0.13292,-23.91218 -0.13292,-23.9122 h -1.78515 -1.78516 v 28.6434 28.6434 h -1.7902 -1.79022 V 134.54636 98.997812 h 1.79022 c 1.70495,0 1.7902,0.0853 1.7902,1.790118 0,1.70495 0.0853,1.79028 1.79022,1.79028 h 1.79022 v -6.154078 -6.15425 l 3.19681,-5.4396 3.1968,-5.439611 0.1508,3.693961 0.15081,3.69395 2.15085,-0.15589 2.15085,-0.15589 0.149,-3.94371 0.149,-3.94371 4.19863,-0.147686 4.19865,-0.147687 v -2.813092 -2.813256 l -2.65784,-0.15425 -2.65786,-0.15425 -0.25069,-2.148013 c -0.41383,-3.545943 -2.38831,-23.089411 -2.37451,-23.502768 0.007,-0.211027 0.46752,-0.383656 1.02328,-0.383656 0.72202,0 1.66554,1.131604 3.30504,3.96406 1.26201,2.180339 3.1559,5.345088 4.20867,7.032977 l 1.91412,3.068917 0.36019,-2.557431 c 0.19811,-1.406628 0.51711,-4.571378 0.70889,-7.032977 0.31615,-4.05743 0.44665,-4.475546 1.39726,-4.475546 0.57669,0 1.32801,0.382179 1.66956,0.84936 0.52865,0.723005 0.79491,0.285526 1.79039,-2.941087 0.64318,-2.084672 1.53994,-5.286507 1.99283,-7.115025 0.81472,-3.289462 0.8434,-3.326384 2.70807,-3.481454 2.27373,-0.189038 2.21954,-0.275024 4.77783,7.573344 1.05456,3.235146 2.00474,5.981944 2.11152,6.103867 0.10682,0.121431 0.4665,-0.05087 0.79941,-0.383656 0.79862,-0.798653 2.43641,-0.776172 2.4848,0.03446 0.34598,5.793399 1.3591,13.88988 1.75203,14.001629 0.28133,0.08041 2.46388,-3.181487 4.85013,-7.247778 3.35804,-5.722181 4.57692,-7.393167 5.39295,-7.393167 h 1.05432 l -1.15617,10.101894 c -0.63589,5.555952 -1.16733,11.137666 -1.18098,12.403664 -0.0131,1.265835 -0.19839,2.574498 -0.41052,2.908104 -0.21213,0.333607 -1.53208,0.678864 -2.93323,0.767312 l -2.54757,0.160813 v 2.813257 2.813092 l 4.21367,0.149327 4.21365,0.149327 0.13407,19.251545 0.13406,19.251388 1.47337,0.39399 c 0.81037,0.21661 2.99698,0.46324 4.85915,0.54808 l 3.38577,0.15425 0.13521,-15.98408 c 0.13161,-15.559388 0.16213,-15.984068 1.15086,-15.984068 0.97343,0 1.01568,-0.36167 1.01568,-8.695265 0,-8.354276 -0.04,-8.695266 -1.02297,-8.695266 -0.99985,0 -1.02297,-0.341155 -1.02297,-15.088927 v -15.08909 h 5.88212 5.88213 v 3.517883 c 0,4.221854 0.48562,4.787164 3.92431,4.567768 l 2.46931,-0.157532 0.14228,-7.032977 c 0.13373,-6.610267 0.20292,-7.032977 1.15085,-7.032977 0.99027,0 1.00855,0.462914 1.00855,25.556426 0,24.433687 0.042,25.579067 0.95572,26.068077 0.52565,0.28126 1.10107,0.3661 1.27872,0.18854 0.17765,-0.17771 0.323,-2.586471 0.323,-5.352632 v -5.029697 h 2.79349 2.79346 l 0.56702,-2.17394 c 0.31185,-1.195601 1.25054,-4.334095 2.08597,-6.974558 0.83544,-2.640464 1.76132,-5.930747 2.05751,-7.31194 l 0.53855,-2.510992 3.0273,0.150968 3.02732,0.150968 2.47635,7.416468 c 1.36201,4.079091 2.69084,8.222179 2.95297,9.206917 l 0.47658,1.79012 3.94644,0.149327 3.94642,0.149327 v 11.961914 c 0,9.67 0.13964,12.10157 0.72873,12.69067 0.40082,0.40089 2.00643,1.24746 3.56803,1.881198 l 2.83928,1.15244 0.1403,8.25729 0.1403,8.25731 1.91809,0.15918 1.91809,0.15917 v -3.73761 -3.73761 l 3.32014,5.62488 3.32013,5.6247 0.005,6.0425 0.005,6.04233 1.66236,-0.16081 c 1.51764,-0.14605 1.67615,-0.32737 1.82108,-2.07844 0.14441,-1.74548 0.29408,-1.91811 1.66234,-1.91811 h 1.50359 v 35.80436 35.8042 h -1.53446 -1.53447 l -0.008,-28.25973 c -0.005,-15.54298 -0.20297,-28.56775 -0.44146,-28.94402 -0.2385,-0.37627 -0.98302,-0.60634 -1.65451,-0.51149 l -1.22101,0.17263 -0.25574,24.2284 -0.25574,24.2284 -1.22764,-2.23433 c -0.67518,-1.22891 -2.05621,-3.59763 -3.06893,-5.26369 l -1.8413,-3.02954 -0.25574,-18.96454 -0.25575,-18.9647 h -1.79021 -1.79022 l -0.13259,26.22249 -0.13259,26.22233 -1.40194,-0.33919 c -0.77108,-0.18658 -1.93482,-0.53561 -2.5861,-0.77584 -3.01273,-1.11077 -3.16351,-0.88891 -3.16351,4.65277 v 5.08942 l -2.94107,0.15261 -2.94106,0.15261 -0.14703,4.73121 c -0.1449,4.66327 -0.16539,4.73137 -1.42264,4.73137 -0.70156,0 -1.4107,0.35215 -1.57585,0.78241 -0.16514,0.43042 0.4036,4.28568 1.26387,8.56743 0.86027,4.28175 1.71926,8.87824 1.90886,10.21463 0.18961,1.33623 0.54877,2.42944 0.79814,2.42944 0.24938,0 0.45342,1.95651 0.45342,4.34771 v 4.34772 h -10.99702 -10.99704 z m 37.7491,-110.0982 0.15457,-2.68526 h -2.07267 -2.07269 v 2.4721 c 0,2.93075 0.23961,3.25074 2.28332,3.05054 1.49006,-0.14604 1.55909,-0.26058 1.70745,-2.83738 z m -49.11658,-18.701 0.14096,-8.08763 -1.93123,0.15917 -1.93124,0.15918 -0.14736,6.90515 c -0.1871,8.77076 -0.0622,9.31736 2.08293,9.11011 l 1.6448,-0.15918 z M 858.71252,99.765632 v -2.55743 l -2.17382,-0.15753 -2.17383,-0.15754 v 2.87201 2.871998 l 2.17383,-0.15753 2.17382,-0.15753 z m 71.35281,-11.87528 c 0.22069,-5.39235 0.36088,-6.181974 1.02297,-5.76205 0.42199,0.2678 0.93987,0.49031 1.15085,0.49458 0.211,0 0.38362,-5.872491 0.38362,-13.059554 V 56.495897 l -3.19681,0.152609 -3.19681,0.152609 -0.14408,6.010004 c -0.1339,5.587951 -0.2148,6.010005 -1.15085,6.010005 -0.96185,0 -1.00674,0.387758 -1.00674,8.695266 0,8.676722 0.003,8.695432 1.15085,8.694772 1.0766,-4.9e-4 1.13945,0.18248 0.97412,2.83935 -0.0972,1.56219 -0.0317,3.41778 0.14539,4.12372 0.2725,1.08566 0.57574,1.25911 1.96695,1.12472 l 1.64479,-0.15918 z"
     style="fill:#000000;stroke-width:0.51148963">
    <title
       id="title5729">ship_04</title>
  </path>
  <path
     id="ship_05"
     d="m 104.01011,527.5789 v -3.99367 l 1.7992,-0.32487 c 1.32045,-0.23848 1.79908,-0.63052 1.79908,-1.47351 0,-1.83774 1.70954,-6.64218 3.65164,-10.26224 2.38717,-4.4496 4.74428,-10.88088 4.74428,-12.94409 0,-1.54113 0.15541,-1.66439 2.09901,-1.66439 h 2.09901 v -3.79058 -3.79047 h -3.29848 -3.29836 v -4.60282 -4.60282 h 3.29836 3.29848 v -1.89518 -1.89529 h -4.19802 -4.1979 v -11.64246 -11.64234 h -3.59828 -3.59829 v -8.12259 -8.12258 h -1.73496 c -1.0289,0 -1.88311,0.34862 -2.09901,0.85656 -0.20012,0.47108 -0.36392,9.39064 -0.36392,19.82102 v 18.96456 l -2.248914,-1.74094 c -1.23692,-0.95754 -9.06315,-7.85583 -17.39169,-15.32958 L 65.628699,445.7921 V 441.30055 436.809 H 53.334571 41.040567 v 1.59021 c 0,1.39832 -0.23531,1.61068 -1.949107,1.75994 l -1.948982,0.16961 -0.176201,3.92594 -0.176201,3.92594 h -2.046413 -2.046537 l -0.176201,-3.92594 c -0.172069,-3.83513 -0.214272,-3.92989 -1.825379,-4.09725 l -1.649177,-0.17131 v -13.23097 -13.23086 h 1.79908 1.799205 v -4.60282 -4.60282 h 2.074714 2.074715 l 0.174198,4.46747 0.174197,4.46735 1.948982,0.16973 c 1.463333,0.12744 1.949107,0.43105 1.949107,1.21841 0,1.63601 -1.581051,2.24889 18.291103,-7.09109 5.277518,-2.48047 10.742131,-5.01431 12.143725,-5.63081 l 2.548342,-1.12082 v -10.15323 l 3.75e-4,-10.15322 h 1.799205 1.79908 v -6.49812 -6.49799 h 1.499275 1.499274 v -7.58117 -7.58094 h 3.58138 3.58125 l 0.16694,7.44559 c 0.16192,7.22519 0.20625,7.45078 1.49752,7.61656 1.27636,0.16385 1.33747,0.42901 1.49927,6.49811 l 0.16856,6.32713 1.64918,0.17143 1.64918,0.17131 v 5.10839 c 0,2.80952 0.21326,5.10828 0.47387,5.10828 0.26061,0 2.48698,-0.94759 4.94753,-2.10562 l 4.473914,-2.10573 v -5.8815 -5.8815 l -2.84865,-0.16509 -2.848654,-0.16509 0.0125,-7.41596 0.0125,-7.41608 7.776394,-7.58105 7.77652,-7.58106 0.0138,-42.95892 0.0138,-42.95893 3.66253,-5.77657 c 2.01435,-3.17714 3.90347,-6.00803 4.19789,-6.29095 0.31571,-0.30327 0.5355,2.85984 0.5355,7.70589 v 8.2204 l -2.09901,2.96274 -2.09889,2.96274 v 35.88232 35.8822 l 3.28683,-2.93097 3.28684,-2.93097 0.16142,12.34863 0.16155,12.34874 5.24759,0.0769 5.24771,0.0769 -2.5e-4,-12.6208 -1.3e-4,-12.62081 3.36298,3.27982 c 1.84967,1.80392 3.60379,3.27992 3.89809,3.27992 0.30832,0 0.53511,-15.07526 0.53511,-35.55778 v -35.5578 l -2.41484,-3.97298 -2.41485,-3.97298 0.16594,-7.97976 0.16593,-7.97988 4.04686,6.22084 4.04674,6.22074 0.025,43.59114 0.0251,43.59126 7.47258,7.20338 7.4727,7.20348 v 7.52147 7.52134 l -2.54872,0.16657 -2.54884,0.16656 -0.17006,5.80517 -0.16994,5.80529 4.20303,1.91123 c 2.31177,1.05106 4.34491,1.91113 4.51798,1.91113 0.1732,0 0.31484,-2.17765 0.31484,-4.83915 v -4.83927 l 1.9491,-0.16973 1.94911,-0.16973 0.16894,-6.36264 0.16894,-6.36265 h 1.48024 1.48023 v -7.58116 -7.58094 h 3.59829 3.59816 v 7.58094 7.58116 h 1.49927 1.4994 v 6.498 6.49811 h 1.79908 1.79908 v 9.89632 9.89631 l 6.44693,3.02143 c 21.00626,9.84532 26.5653,12.3838 27.1187,12.3838 0.33987,0 0.61789,-0.48737 0.61789,-1.08306 0,-0.84231 0.39974,-1.08294 1.79908,-1.08294 h 1.79908 v -4.60282 -4.60282 h 2.39894 2.39881 v 4.60282 4.60282 h 1.79908 1.79921 v 13.26682 13.26692 h -1.79921 -1.79908 v 4.0613 4.06129 h -2.39881 -2.39894 v -4.06129 -4.0613 h -1.79908 c -1.59921,0 -1.79908,-0.18047 -1.79908,-1.62447 v -1.62458 h -11.9942 -11.9942 v 4.48782 4.4877 l -13.64337,12.22232 c -7.50389,6.72235 -15.39763,13.75554 -17.54159,15.62946 l -3.89809,3.40725 -0.15729,-20.1495 -0.15717,-20.14962 -2.24165,0.1677 -2.24152,0.16758 -0.16606,7.98723 -0.16593,7.98722 h -3.28233 -3.28245 v 11.61872 11.61859 l -4.34779,0.1591 -4.34793,0.1591 v 1.62459 c 0,1.57788 0.0902,1.62911 3.14846,1.78809 l 3.14845,0.16374 v 4.54617 4.54616 l -3.14845,0.16374 -3.14846,0.16362 v 3.51977 3.51987 l 2.24892,0.16803 c 2.20758,0.16498 2.24928,0.20976 2.26844,2.43671 0.0213,2.44293 0.86523,4.75864 4.71135,12.92544 1.35776,2.88291 2.83437,6.53814 3.28145,8.12258 0.70067,2.48352 1.03128,2.90462 2.39731,3.0523 1.55375,0.16803 1.58456,0.24945 1.58456,4.19664 v 4.02534 h -26.98695 -26.98695 z"
     style="fill:#000000;stroke-width:0.56986505" />
</svg>
